<?xml version="1.0" encoding="UTF-8" standalone="no"?>
<!DOCTYPE svg PUBLIC "-//W3C//DTD SVG 1.1//EN"
 "http://www.w3.org/Graphics/SVG/1.1/DTD/svg11.dtd">
<!-- Generated by graphviz version 2.38.0 (20140413.2041)
 -->
<!-- Title: root Pages: 1 -->
<svg width="538pt" height="207pt"
 viewBox="0.00 0.00 538.18 207.00" xmlns="http://www.w3.org/2000/svg" xmlns:xlink="http://www.w3.org/1999/xlink">
<g id="graph0" class="graph" transform="scale(1 1) rotate(0) translate(4 203)">
<title>root</title>
<polygon fill="white" stroke="none" points="-4,4 -4,-203 534.179,-203 534.179,4 -4,4"/>
<g id="clust2" class="cluster"><title>cluster_1</title>
<polygon fill="none" stroke="blue" points="236.179,-80 236.179,-155 522.179,-155 522.179,-80 236.179,-80"/>
<text text-anchor="middle" x="379.179" y="-139.8" font-family="Times New Roman,serif" font-size="14.00">process #2</text>
</g>
<g id="clust1" class="cluster"><title>cluster_0</title>
<polygon fill="lightgrey" stroke="lightgrey" points="14.1792,-8 14.1792,-155 228.179,-155 228.179,-8 14.1792,-8"/>
<text text-anchor="middle" x="121.179" y="-139.8" font-family="Times New Roman,serif" font-size="14.00">process #1</text>
</g>
<!-- a0 -->
<g id="node1" class="node"><title>a0</title>
<ellipse fill="white" stroke="white" cx="49.1792" cy="-34" rx="27" ry="18"/>
<text text-anchor="middle" x="49.1792" y="-30.3" font-family="Times New Roman,serif" font-size="14.00">a0</text>
</g>
<!-- a1 -->
<g id="node2" class="node"><title>a1</title>
<ellipse fill="white" stroke="white" cx="193.179" cy="-106" rx="27" ry="18"/>
<text text-anchor="middle" x="193.179" y="-102.3" font-family="Times New Roman,serif" font-size="14.00">a1</text>
</g>
<!-- b3 -->
<g id="node8" class="node"><title>b3</title>
<ellipse fill="lightgrey" stroke="black" cx="271.179" cy="-106" rx="27" ry="18"/>
<text text-anchor="middle" x="271.179" y="-102.3" font-family="Times New Roman,serif" font-size="14.00">b3</text>
</g>
<!-- a1&#45;&gt;b3 -->
<g id="edge3" class="edge"><title>a1&#45;&gt;b3</title>
<path fill="none" stroke="black" d="M220.296,-106C224.893,-106 229.489,-106 234.085,-106"/>
<polygon fill="black" stroke="black" points="234.148,-109.5 244.148,-106 234.148,-102.5 234.148,-109.5"/>
</g>
<!-- a2 -->
<g id="node3" class="node"><title>a2</title>
<ellipse fill="white" stroke="white" cx="121.179" cy="-106" rx="27" ry="18"/>
<text text-anchor="middle" x="121.179" y="-102.3" font-family="Times New Roman,serif" font-size="14.00">a2</text>
</g>
<!-- a3 -->
<g id="node4" class="node"><title>a3</title>
<ellipse fill="white" stroke="white" cx="49.1792" cy="-106" rx="27" ry="18"/>
<text text-anchor="middle" x="49.1792" y="-102.3" font-family="Times New Roman,serif" font-size="14.00">a3</text>
</g>
<!-- a3&#45;&gt;a0 -->
<g id="edge7" class="edge"><title>a3&#45;&gt;a0</title>
<path fill="none" stroke="black" d="M49.1792,-87.6966C49.1792,-79.9827 49.1792,-70.7125 49.1792,-62.1124"/>
<polygon fill="black" stroke="black" points="52.6793,-62.1043 49.1792,-52.1043 45.6793,-62.1044 52.6793,-62.1043"/>
</g>
<!-- end -->
<g id="end" class="node"><title>end</title>
<polygon fill="none" stroke="black" points="270.179,-52 236.162,-34 270.179,-16 304.197,-34 270.179,-52"/>
<polyline fill="none" stroke="black" points="246.768,-39.6124 246.768,-28.3876 "/>
<polyline fill="none" stroke="black" points="259.573,-21.6124 280.786,-21.6124 "/>
<polyline fill="none" stroke="black" points="293.59,-28.3876 293.59,-39.6124 "/>
<polyline fill="none" stroke="black" points="280.786,-46.3876 259.573,-46.3876 "/>
<text text-anchor="middle" x="270.179" y="-30.3" font-family="Times New Roman,serif" font-size="14.00">end</text>
</g>
<!-- a3&#45;&gt;end -->
<g id="edge5" class="edge"><title>a3&#45;&gt;end</title>
<path fill="none" stroke="black" d="M65.5346,-91.4856C71.4168,-87.2278 78.3038,-82.8875 85.1792,-80 146.499,-54.2474 168.73,-71.9365 232.179,-52 236.101,-50.7678 240.155,-49.244 244.09,-47.6191"/>
<polygon fill="black" stroke="black" points="245.743,-50.7156 253.482,-43.4797 242.92,-44.3102 245.743,-50.7156"/>
</g>
<!-- b0 -->
<g id="node5" class="node"><title>b0</title>
<ellipse fill="lightgrey" stroke="black" cx="487.179" cy="-106" rx="27" ry="18"/>
<text text-anchor="middle" x="487.179" y="-102.3" font-family="Times New Roman,serif" font-size="14.00">b0</text>
</g>
<!-- b1 -->
<g id="node6" class="node"><title>b1</title>
<ellipse fill="lightgrey" stroke="black" cx="415.179" cy="-106" rx="27" ry="18"/>
<text text-anchor="middle" x="415.179" y="-102.3" font-family="Times New Roman,serif" font-size="14.00">b1</text>
</g>
<!-- b2 -->
<g id="node7" class="node"><title>b2</title>
<ellipse fill="lightgrey" stroke="black" cx="343.179" cy="-106" rx="27" ry="18"/>
<text text-anchor="middle" x="343.179" y="-102.3" font-family="Times New Roman,serif" font-size="14.00">b2</text>
</g>
<!-- b2&#45;&gt;a3 -->
<g id="edge4" class="edge"><title>b2&#45;&gt;a3</title>
<path fill="none" stroke="black" d="M335.677,-123.525C328.461,-137.457 316.009,-155.216 298.179,-159 276.006,-163.705 116.352,-163.705 94.1792,-159 79.9712,-155.985 69.1778,-144.095 61.728,-132.339"/>
<polygon fill="black" stroke="black" points="64.6876,-130.464 56.6817,-123.525 58.6127,-133.942 64.6876,-130.464"/>
</g>
<!-- b3&#45;&gt;end -->
<g id="edge6" class="edge"><title>b3&#45;&gt;end</title>
<path fill="none" stroke="black" d="M270.932,-87.6966C270.822,-79.9827 270.689,-70.7125 270.567,-62.1124"/>
<polygon fill="black" stroke="black" points="274.066,-62.0533 270.424,-52.1043 267.067,-62.1533 274.066,-62.0533"/>
</g>
<!-- start -->
<g id="start" class="node"><title>start</title>
<polygon fill="none" stroke="black" points="240.179,-199 202.307,-181 240.179,-163 278.051,-181 240.179,-199"/>
<polyline fill="none" stroke="black" points="213.145,-186.151 213.145,-175.849 "/>
<polyline fill="none" stroke="black" points="229.341,-168.151 251.017,-168.151 "/>
<polyline fill="none" stroke="black" points="267.213,-175.849 267.213,-186.151 "/>
<polyline fill="none" stroke="black" points="251.017,-193.849 229.341,-193.849 "/>
<text text-anchor="middle" x="240.179" y="-177.3" font-family="Times New Roman,serif" font-size="14.00">start</text>
</g>
<!-- start&#45;&gt;a0 -->
<g id="edge1" class="edge"><title>start&#45;&gt;a0</title>
<path fill="none" stroke="black" d="M206.622,-178.731C146.585,-176.113 25.8452,-169.138 13.1792,-155 -9.06354,-130.173 2.14562,-111.454 13.1792,-80 16.0666,-71.7687 21.1629,-63.9246 26.6287,-57.1586"/>
<polygon fill="black" stroke="black" points="29.6366,-59.0381 33.6111,-49.217 24.3795,-54.416 29.6366,-59.0381"/>
</g>
<!-- start&#45;&gt;b0 -->
<g id="edge2" class="edge"><title>start&#45;&gt;b0</title>
<path fill="none" stroke="black" d="M274.307,-179.185C326.157,-177.414 421.852,-171.894 451.179,-155 460.424,-149.675 468.034,-140.927 473.837,-132.348"/>
<polygon fill="black" stroke="black" points="476.95,-133.968 479.224,-123.62 470.993,-130.292 476.95,-133.968"/>
</g>
</g>
</svg>
