<?xml version="1.0" encoding="UTF-8" standalone="no"?>
<!DOCTYPE svg PUBLIC "-//W3C//DTD SVG 1.1//EN"
 "http://www.w3.org/Graphics/SVG/1.1/DTD/svg11.dtd">
<!-- Generated by graphviz version 2.38.0 (20140413.2041)
 -->
<!-- Title: root Pages: 1 -->
<svg width="224pt" height="407pt"
 viewBox="0.00 0.00 224.00 407.00" xmlns="http://www.w3.org/2000/svg" xmlns:xlink="http://www.w3.org/1999/xlink">
<g id="graph0" class="graph" transform="scale(1 1) rotate(0) translate(4 403)">
<title>root</title>
<polygon fill="white" stroke="none" points="-4,4 -4,-403 220,-403 220,4 -4,4"/>
<g id="clust2" class="cluster"><title>cluster_1</title>
<polygon fill="none" stroke="blue" points="8,-64 8,-355 87,-355 87,-64 8,-64"/>
<text text-anchor="middle" x="47.5" y="-339.8" font-family="Times New Roman,serif" font-size="14.00">process #2</text>
</g>
<g id="clust1" class="cluster"><title>cluster_0</title>
<polygon fill="lightgrey" stroke="lightgrey" points="118,-64 118,-355 208,-355 208,-64 118,-64"/>
<text text-anchor="middle" x="163" y="-339.8" font-family="Times New Roman,serif" font-size="14.00">process #1</text>
</g>
<!-- start -->
<g id="start" class="node"><title>start</title>
<polygon fill="none" stroke="black" points="100,-399 62.1282,-381 100,-363 137.872,-381 100,-399"/>
<polyline fill="none" stroke="black" points="72.9663,-386.151 72.9663,-375.849 "/>
<polyline fill="none" stroke="black" points="89.1619,-368.151 110.838,-368.151 "/>
<polyline fill="none" stroke="black" points="127.034,-375.849 127.034,-386.151 "/>
<polyline fill="none" stroke="black" points="110.838,-393.849 89.1619,-393.849 "/>
<text text-anchor="middle" x="100" y="-377.3" font-family="Times New Roman,serif" font-size="14.00">start</text>
</g>
<!-- a0 -->
<g id="node3" class="node"><title>a0</title>
<ellipse fill="none" stroke="black" cx="153" cy="-306" rx="27" ry="18"/>
<text text-anchor="middle" x="153" y="-302.3" font-family="Times New Roman,serif" font-size="14.00">a0</text>
</g>
<!-- start&#45;&gt;a0 -->
<g id="edge1" class="edge"><title>start&#45;&gt;a0</title>
<path fill="none" stroke="black" d="M109.232,-367.284C116.487,-357.292 126.801,-343.086 135.594,-330.974"/>
<polygon fill="black" stroke="black" points="138.62,-332.764 141.663,-322.616 132.955,-328.651 138.62,-332.764"/>
</g>
<!-- b0 -->
<g id="node4" class="node"><title>b0</title>
<ellipse fill="none" stroke="black" cx="47" cy="-306" rx="27" ry="18"/>
<text text-anchor="middle" x="47" y="-302.3" font-family="Times New Roman,serif" font-size="14.00">b0</text>
</g>
<!-- start&#45;&gt;b0 -->
<g id="edge2" class="edge"><title>start&#45;&gt;b0</title>
<path fill="none" stroke="black" d="M90.7681,-367.284C83.513,-357.292 73.1994,-343.086 64.4061,-330.974"/>
<polygon fill="black" stroke="black" points="67.0447,-328.651 58.3373,-322.616 61.3802,-332.764 67.0447,-328.651"/>
</g>
<!-- end -->
<g id="end" class="node"><title>end</title>
<polygon fill="none" stroke="black" points="102,-36 67.9824,-18 102,-3.55271e-015 136.018,-18 102,-36"/>
<polyline fill="none" stroke="black" points="78.589,-23.6124 78.589,-12.3876 "/>
<polyline fill="none" stroke="black" points="91.3933,-5.61238 112.607,-5.61238 "/>
<polyline fill="none" stroke="black" points="125.411,-12.3876 125.411,-23.6124 "/>
<polyline fill="none" stroke="black" points="112.607,-30.3876 91.3933,-30.3876 "/>
<text text-anchor="middle" x="102" y="-14.3" font-family="Times New Roman,serif" font-size="14.00">end</text>
</g>
<!-- a1 -->
<g id="node5" class="node"><title>a1</title>
<ellipse fill="none" stroke="black" cx="153" cy="-234" rx="27" ry="18"/>
<text text-anchor="middle" x="153" y="-230.3" font-family="Times New Roman,serif" font-size="14.00">a1</text>
</g>
<!-- a0&#45;&gt;a1 -->
<g id="edge8" class="edge"><title>a0&#45;&gt;a1</title>
<path fill="none" stroke="black" d="M153,-287.697C153,-279.983 153,-270.712 153,-262.112"/>
<polygon fill="black" stroke="black" points="156.5,-262.104 153,-252.104 149.5,-262.104 156.5,-262.104"/>
</g>
<!-- b1 -->
<g id="node10" class="node"><title>b1</title>
<ellipse fill="lightgrey" stroke="black" cx="45" cy="-234" rx="27" ry="18"/>
<text text-anchor="middle" x="45" y="-230.3" font-family="Times New Roman,serif" font-size="14.00">b1</text>
</g>
<!-- b0&#45;&gt;b1 -->
<g id="edge11" class="edge"><title>b0&#45;&gt;b1</title>
<path fill="none" stroke="black" d="M46.5056,-287.697C46.2852,-279.983 46.0204,-270.712 45.7746,-262.112"/>
<polygon fill="black" stroke="black" points="49.273,-262 45.4887,-252.104 42.2758,-262.2 49.273,-262"/>
</g>
<!-- b3 -->
<g id="node6" class="node"><title>b3</title>
<ellipse fill="none" stroke="black" cx="52" cy="-90" rx="27" ry="18"/>
<text text-anchor="middle" x="52" y="-86.3" font-family="Times New Roman,serif" font-size="14.00">b3</text>
</g>
<!-- a1&#45;&gt;b3 -->
<g id="edge3" class="edge"><title>a1&#45;&gt;b3</title>
<path fill="none" stroke="black" d="M141.999,-217.533C124.392,-192.779 89.7547,-144.081 68.9618,-114.847"/>
<polygon fill="black" stroke="black" points="71.6357,-112.568 62.9875,-106.448 65.9315,-116.625 71.6357,-112.568"/>
</g>
<!-- a2 -->
<g id="node9" class="node"><title>a2</title>
<ellipse fill="white" stroke="white" cx="153" cy="-162" rx="27" ry="18"/>
<text text-anchor="middle" x="153" y="-158.3" font-family="Times New Roman,serif" font-size="14.00">a2</text>
</g>
<!-- a1&#45;&gt;a2 -->
<g id="edge9" class="edge"><title>a1&#45;&gt;a2</title>
<path fill="none" stroke="black" d="M153,-215.697C153,-207.983 153,-198.712 153,-190.112"/>
<polygon fill="black" stroke="black" points="156.5,-190.104 153,-180.104 149.5,-190.104 156.5,-190.104"/>
</g>
<!-- b3&#45;&gt;end -->
<g id="edge6" class="edge"><title>b3&#45;&gt;end</title>
<path fill="none" stroke="black" d="M63.0966,-73.4647C70.1094,-63.6469 79.2623,-50.8328 86.9282,-40.1006"/>
<polygon fill="black" stroke="black" points="89.9738,-41.8583 92.9381,-31.6866 84.2776,-37.7896 89.9738,-41.8583"/>
</g>
<!-- b2 -->
<g id="node7" class="node"><title>b2</title>
<ellipse fill="none" stroke="black" cx="43" cy="-162" rx="27" ry="18"/>
<text text-anchor="middle" x="43" y="-158.3" font-family="Times New Roman,serif" font-size="14.00">b2</text>
</g>
<!-- b2&#45;&gt;b3 -->
<g id="edge13" class="edge"><title>b2&#45;&gt;b3</title>
<path fill="none" stroke="black" d="M45.1786,-144.055C46.1698,-136.346 47.368,-127.027 48.4817,-118.364"/>
<polygon fill="black" stroke="black" points="51.975,-118.64 49.7789,-108.275 45.0322,-117.747 51.975,-118.64"/>
</g>
<!-- a3 -->
<g id="node8" class="node"><title>a3</title>
<ellipse fill="none" stroke="black" cx="153" cy="-90" rx="27" ry="18"/>
<text text-anchor="middle" x="153" y="-86.3" font-family="Times New Roman,serif" font-size="14.00">a3</text>
</g>
<!-- b2&#45;&gt;a3 -->
<g id="edge4" class="edge"><title>b2&#45;&gt;a3</title>
<path fill="none" stroke="black" d="M62.1605,-148.807C79.6689,-137.665 105.759,-121.062 125.493,-108.504"/>
<polygon fill="black" stroke="black" points="127.501,-111.375 134.059,-103.053 123.743,-105.469 127.501,-111.375"/>
</g>
<!-- a3&#45;&gt;end -->
<g id="edge5" class="edge"><title>a3&#45;&gt;end</title>
<path fill="none" stroke="black" d="M141.681,-73.4647C134.457,-63.5487 125.006,-50.5762 117.139,-39.7792"/>
<polygon fill="black" stroke="black" points="119.961,-37.708 111.243,-31.6866 114.303,-41.83 119.961,-37.708"/>
</g>
<!-- a3&#45;&gt;a0 -->
<g id="edge7" class="edge"><title>a3&#45;&gt;a0</title>
<path fill="none" stroke="black" d="M166.75,-105.931C174.961,-115.9 184.619,-129.753 189,-144 203.108,-189.88 203.108,-206.12 189,-252 185.714,-262.685 179.46,-273.149 173.075,-281.919"/>
<polygon fill="black" stroke="black" points="170.116,-280.023 166.75,-290.069 175.646,-284.314 170.116,-280.023"/>
</g>
<!-- a2&#45;&gt;a3 -->
<g id="edge10" class="edge"><title>a2&#45;&gt;a3</title>
<path fill="none" stroke="black" d="M153,-143.697C153,-135.983 153,-126.712 153,-118.112"/>
<polygon fill="black" stroke="black" points="156.5,-118.104 153,-108.104 149.5,-118.104 156.5,-118.104"/>
</g>
<!-- b1&#45;&gt;b2 -->
<g id="edge12" class="edge"><title>b1&#45;&gt;b2</title>
<path fill="none" stroke="black" d="M44.5056,-215.697C44.2852,-207.983 44.0204,-198.712 43.7746,-190.112"/>
<polygon fill="black" stroke="black" points="47.273,-190 43.4887,-180.104 40.2758,-190.2 47.273,-190"/>
</g>
</g>
</svg>
