<?xml version="1.0" encoding="UTF-8" standalone="no"?>
<!DOCTYPE svg PUBLIC "-//W3C//DTD SVG 1.1//EN"
 "http://www.w3.org/Graphics/SVG/1.1/DTD/svg11.dtd">
<!-- Generated by graphviz version 2.38.0 (20140413.2041)
 -->
<!-- Title: root Pages: 1 -->
<svg width="492pt" height="438pt"
 viewBox="0.00 0.00 492.49 438.00" xmlns="http://www.w3.org/2000/svg" xmlns:xlink="http://www.w3.org/1999/xlink">
<g id="graph0" class="graph" transform="scale(1 1) rotate(0) translate(4 434)">
<title>root</title>
<polygon fill="white" stroke="none" points="-4,4 -4,-434 488.487,-434 488.487,4 -4,4"/>
<g id="clust2" class="cluster"><title>cluster_0</title>
<polygon fill="lightgrey" stroke="lightgrey" points="23.4867,-64 23.4867,-386 389.487,-386 389.487,-64 23.4867,-64"/>
<text text-anchor="middle" x="206.487" y="-370.8" font-family="Times New Roman,serif" font-size="14.00">process #1</text>
</g>
<g id="clust3" class="cluster"><title>cluster_2</title>
<polygon fill="lightgrey" stroke="black" points="95.4867,-280 95.4867,-355 381.487,-355 381.487,-280 95.4867,-280"/>
<text text-anchor="middle" x="238.487" y="-339.8" font-family="Times New Roman,serif" font-size="14.00">process #3</text>
</g>
<g id="clust4" class="cluster"><title>cluster_1</title>
<polygon fill="none" stroke="blue" points="397.487,-64 397.487,-355 476.487,-355 476.487,-64 397.487,-64"/>
<text text-anchor="middle" x="436.987" y="-339.8" font-family="Times New Roman,serif" font-size="14.00">process #2</text>
</g>
<!-- c0 -->
<g id="c0" class="node"><title>c0</title>
<polygon fill="yellow" stroke="yellow" points="373.487,-324 319.487,-324 319.487,-288 373.487,-288 373.487,-324"/>
<text text-anchor="middle" x="346.487" y="-302.3" font-family="Times New Roman,serif" font-size="14.00">c0</text>
</g>
<!-- c1 -->
<g id="c1" class="node"><title>c1</title>
<polygon fill="yellow" stroke="yellow" points="301.487,-324 247.487,-324 247.487,-288 301.487,-288 301.487,-324"/>
<text text-anchor="middle" x="274.487" y="-302.3" font-family="Times New Roman,serif" font-size="14.00">c1</text>
</g>
<!-- c2 -->
<g id="c2" class="node"><title>c2</title>
<polygon fill="yellow" stroke="yellow" points="229.487,-324 175.487,-324 175.487,-288 229.487,-288 229.487,-324"/>
<text text-anchor="middle" x="202.487" y="-302.3" font-family="Times New Roman,serif" font-size="14.00">c2</text>
</g>
<!-- c3 -->
<g id="c3" class="node"><title>c3</title>
<polygon fill="yellow" stroke="yellow" points="157.487,-324 103.487,-324 103.487,-288 157.487,-288 157.487,-324"/>
<text text-anchor="middle" x="130.487" y="-302.3" font-family="Times New Roman,serif" font-size="14.00">c3</text>
</g>
<!-- a0 -->
<g id="a0" class="node"><title>a0</title>
<polygon fill="white" stroke="white" points="85.4867,-324 31.4867,-324 31.4867,-288 85.4867,-288 85.4867,-324"/>
<text text-anchor="middle" x="58.4867" y="-302.3" font-family="Times New Roman,serif" font-size="14.00">a0</text>
</g>
<!-- a1 -->
<g id="a1" class="node"><title>a1</title>
<polygon fill="white" stroke="white" points="207.487,-252 153.487,-252 153.487,-216 207.487,-216 207.487,-252"/>
<text text-anchor="middle" x="180.487" y="-230.3" font-family="Times New Roman,serif" font-size="14.00">a1</text>
</g>
<!-- a0&#45;&gt;a1 -->
<g id="a0&#45;a1" class="edge"><title>a0&#45;&gt;a1</title>
<path fill="none" stroke="black" d="M80.1054,-287.756C83.8223,-285.044 87.7069,-282.36 91.4867,-280 108.183,-269.574 127.602,-259.533 144.033,-251.592"/>
<polygon fill="black" stroke="black" points="145.794,-254.63 153.319,-247.172 142.785,-248.309 145.794,-254.63"/>
</g>
<!-- a2 -->
<g id="a2" class="node"><title>a2</title>
<polygon fill="white" stroke="white" points="222.487,-180 168.487,-180 168.487,-144 222.487,-144 222.487,-180"/>
<text text-anchor="middle" x="195.487" y="-158.3" font-family="Times New Roman,serif" font-size="14.00">a2</text>
</g>
<!-- a1&#45;&gt;a2 -->
<g id="a1&#45;a2" class="edge"><title>a1&#45;&gt;a2</title>
<path fill="none" stroke="black" d="M184.195,-215.697C185.848,-207.983 187.834,-198.712 189.677,-190.112"/>
<polygon fill="black" stroke="black" points="193.148,-190.616 191.821,-180.104 186.304,-189.149 193.148,-190.616"/>
</g>
<!-- b3 -->
<g id="b3" class="node"><title>b3</title>
<polygon fill="lightgrey" stroke="black" points="459.487,-108 405.487,-108 405.487,-72 459.487,-72 459.487,-108"/>
<text text-anchor="middle" x="432.487" y="-86.3" font-family="Times New Roman,serif" font-size="14.00">b3</text>
</g>
<!-- a1&#45;&gt;b3 -->
<g id="a1&#45;b3" class="edge"><title>a1&#45;&gt;b3</title>
<path fill="none" stroke="black" d="M207.935,-217.533C253.689,-191.751 345.538,-139.995 396.445,-111.309"/>
<polygon fill="black" stroke="black" points="398.46,-114.191 405.454,-106.233 395.024,-108.093 398.46,-114.191"/>
</g>
<!-- a3 -->
<g id="a3" class="node"><title>a3</title>
<polygon fill="white" stroke="white" points="342.487,-108 288.487,-108 288.487,-72 342.487,-72 342.487,-108"/>
<text text-anchor="middle" x="315.487" y="-86.3" font-family="Times New Roman,serif" font-size="14.00">a3</text>
</g>
<!-- a2&#45;&gt;a3 -->
<g id="a2&#45;a3" class="edge"><title>a2&#45;&gt;a3</title>
<path fill="none" stroke="black" d="M222.717,-145.116C239.594,-135.271 261.461,-122.515 279.725,-111.861"/>
<polygon fill="black" stroke="black" points="281.49,-114.883 288.365,-106.821 277.963,-108.837 281.49,-114.883"/>
</g>
<!-- a3&#45;&gt;a0 -->
<g id="a3&#45;a0" class="edge"><title>a3&#45;&gt;a0</title>
<path fill="none" stroke="black" d="M309.996,-108.248C298.437,-141.627 268.299,-215.017 216.487,-252 170.148,-285.076 143.132,-256.042 91.4867,-280 89.9177,-280.728 88.3522,-281.54 86.8033,-282.413"/>
<polygon fill="black" stroke="black" points="84.7262,-279.588 78.2058,-287.938 88.5107,-285.477 84.7262,-279.588"/>
</g>
<!-- end -->
<g id="end" class="node"><title>end</title>
<polygon fill="none" stroke="black" points="403.487,-36 369.469,-18 403.487,-3.55271e-015 437.504,-18 403.487,-36"/>
<polyline fill="none" stroke="black" points="380.076,-23.6124 380.076,-12.3876 "/>
<polyline fill="none" stroke="black" points="392.88,-5.61238 414.093,-5.61238 "/>
<polyline fill="none" stroke="black" points="426.898,-12.3876 426.898,-23.6124 "/>
<polyline fill="none" stroke="black" points="414.093,-30.3876 392.88,-30.3876 "/>
<text text-anchor="middle" x="403.487" y="-14.3" font-family="Times New Roman,serif" font-size="14.00">end</text>
</g>
<!-- a3&#45;&gt;end -->
<g id="a3&#45;end" class="edge"><title>a3&#45;&gt;end</title>
<path fill="none" stroke="black" d="M337.239,-71.6966C351.064,-60.6995 368.866,-46.5393 382.533,-35.6673"/>
<polygon fill="black" stroke="black" points="384.79,-38.3449 390.437,-29.3805 380.432,-32.8667 384.79,-38.3449"/>
</g>
<!-- b0 -->
<g id="b0" class="node"><title>b0</title>
<polygon fill="lightgrey" stroke="black" points="459.487,-324 405.487,-324 405.487,-288 459.487,-288 459.487,-324"/>
<text text-anchor="middle" x="432.487" y="-302.3" font-family="Times New Roman,serif" font-size="14.00">b0</text>
</g>
<!-- b1 -->
<g id="b1" class="node"><title>b1</title>
<polygon fill="lightgrey" stroke="black" points="459.487,-252 405.487,-252 405.487,-216 459.487,-216 459.487,-252"/>
<text text-anchor="middle" x="432.487" y="-230.3" font-family="Times New Roman,serif" font-size="14.00">b1</text>
</g>
<!-- b0&#45;&gt;b1 -->
<g id="b0&#45;b1" class="edge"><title>b0&#45;&gt;b1</title>
<path fill="none" stroke="black" d="M432.487,-287.697C432.487,-279.983 432.487,-270.712 432.487,-262.112"/>
<polygon fill="black" stroke="black" points="435.987,-262.104 432.487,-252.104 428.987,-262.104 435.987,-262.104"/>
</g>
<!-- b2 -->
<g id="b2" class="node"><title>b2</title>
<polygon fill="lightgrey" stroke="black" points="459.487,-180 405.487,-180 405.487,-144 459.487,-144 459.487,-180"/>
<text text-anchor="middle" x="432.487" y="-158.3" font-family="Times New Roman,serif" font-size="14.00">b2</text>
</g>
<!-- b1&#45;&gt;b2 -->
<g id="b1&#45;b2" class="edge"><title>b1&#45;&gt;b2</title>
<path fill="none" stroke="black" d="M432.487,-215.697C432.487,-207.983 432.487,-198.712 432.487,-190.112"/>
<polygon fill="black" stroke="black" points="435.987,-190.104 432.487,-180.104 428.987,-190.104 435.987,-190.104"/>
</g>
<!-- b2&#45;&gt;a3 -->
<g id="b2&#45;a3" class="edge"><title>b2&#45;&gt;a3</title>
<path fill="none" stroke="black" d="M405.35,-144.765C389.369,-135.203 368.955,-122.99 351.623,-112.62"/>
<polygon fill="black" stroke="black" points="353.259,-109.521 342.881,-107.39 349.665,-115.527 353.259,-109.521"/>
</g>
<!-- b2&#45;&gt;b3 -->
<g id="b2&#45;b3" class="edge"><title>b2&#45;&gt;b3</title>
<path fill="none" stroke="black" d="M432.487,-143.697C432.487,-135.983 432.487,-126.712 432.487,-118.112"/>
<polygon fill="black" stroke="black" points="435.987,-118.104 432.487,-108.104 428.987,-118.104 435.987,-118.104"/>
</g>
<!-- b3&#45;&gt;end -->
<g id="b3&#45;end" class="edge"><title>b3&#45;&gt;end</title>
<path fill="none" stroke="black" d="M425.318,-71.6966C421.683,-62.9225 417.214,-52.1348 413.268,-42.6101"/>
<polygon fill="black" stroke="black" points="416.463,-41.1779 409.402,-33.279 409.996,-43.8571 416.463,-41.1779"/>
</g>
<!-- start -->
<g id="start" class="node"><title>start</title>
<polygon fill="none" stroke="black" points="217.487,-430 179.615,-412 217.487,-394 255.358,-412 217.487,-430"/>
<polyline fill="none" stroke="black" points="190.453,-417.151 190.453,-406.849 "/>
<polyline fill="none" stroke="black" points="206.649,-399.151 228.325,-399.151 "/>
<polyline fill="none" stroke="black" points="244.52,-406.849 244.52,-417.151 "/>
<polyline fill="none" stroke="black" points="228.325,-424.849 206.649,-424.849 "/>
<text text-anchor="middle" x="217.487" y="-408.3" font-family="Times New Roman,serif" font-size="14.00">start</text>
</g>
<!-- start&#45;&gt;a1 -->
<g id="start&#45;a1" class="edge"><title>start&#45;&gt;a1</title>
<path fill="none" stroke="black" d="M179.799,-411.803C128.99,-411.983 42.5542,-408.805 22.4867,-386 -8.63584,-350.633 -5.89915,-317.599 22.4867,-280 37.0529,-260.706 101.611,-247.232 143.565,-240.331"/>
<polygon fill="black" stroke="black" points="144.116,-243.787 153.441,-238.758 143.015,-236.874 144.116,-243.787"/>
</g>
<!-- start&#45;&gt;b0 -->
<g id="start&#45;b0" class="edge"><title>start&#45;&gt;b0</title>
<path fill="none" stroke="black" d="M250.138,-409.437C292.612,-406.852 363.938,-400.457 385.487,-386 403.766,-373.737 415.992,-351.755 423.381,-334.087"/>
<polygon fill="black" stroke="black" points="426.828,-334.878 427.182,-324.289 420.302,-332.346 426.828,-334.878"/>
</g>
</g>
</svg>
