<?xml version="1.0" encoding="UTF-8" standalone="no"?>
<!DOCTYPE svg PUBLIC "-//W3C//DTD SVG 1.1//EN"
 "http://www.w3.org/Graphics/SVG/1.1/DTD/svg11.dtd">
<!-- Generated by graphviz version 2.38.0 (20140413.2041)
 -->
<!-- Title: root Pages: 1 -->
<svg width="840pt" height="238pt"
 viewBox="0.00 0.00 839.58 238.00" xmlns="http://www.w3.org/2000/svg" xmlns:xlink="http://www.w3.org/1999/xlink">
<g id="graph0" class="graph" transform="scale(1 1) rotate(0) translate(4 234)">
<title>root</title>
<polygon fill="white" stroke="none" points="-4,4 -4,-234 835.581,-234 835.581,4 -4,4"/>
<g id="clust1" class="cluster"><title>cluster_0</title>
<polygon fill="lightgrey" stroke="lightgrey" points="19.5811,-8 19.5811,-186 529.581,-186 529.581,-8 19.5811,-8"/>
<text text-anchor="middle" x="274.581" y="-170.8" font-family="Times New Roman,serif" font-size="14.00">process #1</text>
</g>
<g id="clust2" class="cluster"><title>cluster_2</title>
<polygon fill="lightgrey" stroke="black" points="235.581,-80 235.581,-155 521.581,-155 521.581,-80 235.581,-80"/>
<text text-anchor="middle" x="378.581" y="-139.8" font-family="Times New Roman,serif" font-size="14.00">process #3</text>
</g>
<g id="clust3" class="cluster"><title>cluster_1</title>
<polygon fill="none" stroke="blue" points="537.581,-80 537.581,-155 823.581,-155 823.581,-80 537.581,-80"/>
<text text-anchor="middle" x="680.581" y="-139.8" font-family="Times New Roman,serif" font-size="14.00">process #2</text>
</g>
<!-- c0 -->
<g id="node1" class="node"><title>c0</title>
<polygon fill="yellow" stroke="yellow" points="513.581,-124 459.581,-124 459.581,-88 513.581,-88 513.581,-124"/>
<text text-anchor="middle" x="486.581" y="-102.3" font-family="Times New Roman,serif" font-size="14.00">c0</text>
</g>
<!-- c1 -->
<g id="node2" class="node"><title>c1</title>
<polygon fill="yellow" stroke="yellow" points="441.581,-124 387.581,-124 387.581,-88 441.581,-88 441.581,-124"/>
<text text-anchor="middle" x="414.581" y="-102.3" font-family="Times New Roman,serif" font-size="14.00">c1</text>
</g>
<!-- c2 -->
<g id="node3" class="node"><title>c2</title>
<polygon fill="yellow" stroke="yellow" points="369.581,-124 315.581,-124 315.581,-88 369.581,-88 369.581,-124"/>
<text text-anchor="middle" x="342.581" y="-102.3" font-family="Times New Roman,serif" font-size="14.00">c2</text>
</g>
<!-- c3 -->
<g id="node4" class="node"><title>c3</title>
<polygon fill="yellow" stroke="yellow" points="297.581,-124 243.581,-124 243.581,-88 297.581,-88 297.581,-124"/>
<text text-anchor="middle" x="270.581" y="-102.3" font-family="Times New Roman,serif" font-size="14.00">c3</text>
</g>
<!-- a0 -->
<g id="node5" class="node"><title>a0</title>
<polygon fill="white" stroke="white" points="81.5811,-52 27.5811,-52 27.5811,-16 81.5811,-16 81.5811,-52"/>
<text text-anchor="middle" x="54.5811" y="-30.3" font-family="Times New Roman,serif" font-size="14.00">a0</text>
</g>
<!-- a1 -->
<g id="node6" class="node"><title>a1</title>
<polygon fill="white" stroke="white" points="225.581,-124 171.581,-124 171.581,-88 225.581,-88 225.581,-124"/>
<text text-anchor="middle" x="198.581" y="-102.3" font-family="Times New Roman,serif" font-size="14.00">a1</text>
</g>
<!-- b3 -->
<g id="node12" class="node"><title>b3</title>
<polygon fill="lightgrey" stroke="black" points="599.581,-124 545.581,-124 545.581,-88 599.581,-88 599.581,-124"/>
<text text-anchor="middle" x="572.581" y="-102.3" font-family="Times New Roman,serif" font-size="14.00">b3</text>
</g>
<!-- a1&#45;&gt;b3 -->
<g id="edge3" class="edge"><title>a1&#45;&gt;b3</title>
<path fill="none" stroke="black" d="M200.152,-124.128C203.292,-146.998 212.669,-184.077 240.581,-190 255.58,-193.183 501.582,-193.183 516.581,-190 542.452,-184.51 557.28,-156.309 565.096,-134.077"/>
<polygon fill="black" stroke="black" points="568.483,-134.977 568.208,-124.385 561.818,-132.837 568.483,-134.977"/>
</g>
<!-- a2 -->
<g id="node7" class="node"><title>a2</title>
<polygon fill="white" stroke="white" points="153.581,-124 99.5811,-124 99.5811,-88 153.581,-88 153.581,-124"/>
<text text-anchor="middle" x="126.581" y="-102.3" font-family="Times New Roman,serif" font-size="14.00">a2</text>
</g>
<!-- a3 -->
<g id="node8" class="node"><title>a3</title>
<polygon fill="white" stroke="white" points="81.5811,-124 27.5811,-124 27.5811,-88 81.5811,-88 81.5811,-124"/>
<text text-anchor="middle" x="54.5811" y="-102.3" font-family="Times New Roman,serif" font-size="14.00">a3</text>
</g>
<!-- a3&#45;&gt;a0 -->
<g id="edge7" class="edge"><title>a3&#45;&gt;a0</title>
<path fill="none" stroke="black" d="M54.5811,-87.6966C54.5811,-79.9827 54.5811,-70.7125 54.5811,-62.1124"/>
<polygon fill="black" stroke="black" points="58.0812,-62.1043 54.5811,-52.1043 51.0812,-62.1044 58.0812,-62.1043"/>
</g>
<!-- end -->
<g id="end" class="node"><title>end</title>
<polygon fill="none" stroke="black" points="571.581,-52 537.563,-34 571.581,-16 605.599,-34 571.581,-52"/>
<polyline fill="none" stroke="black" points="548.17,-39.6124 548.17,-28.3876 "/>
<polyline fill="none" stroke="black" points="560.974,-21.6124 582.188,-21.6124 "/>
<polyline fill="none" stroke="black" points="594.992,-28.3876 594.992,-39.6124 "/>
<polyline fill="none" stroke="black" points="582.188,-46.3876 560.974,-46.3876 "/>
<text text-anchor="middle" x="571.581" y="-30.3" font-family="Times New Roman,serif" font-size="14.00">end</text>
</g>
<!-- a3&#45;&gt;end -->
<g id="edge5" class="edge"><title>a3&#45;&gt;end</title>
<path fill="none" stroke="black" d="M75.2327,-87.8666C80.0119,-84.7216 85.2633,-81.8515 90.5811,-80 276.892,-15.1297 342.043,-99.2569 533.581,-52 537.765,-50.9678 542.061,-49.4941 546.191,-47.8408"/>
<polygon fill="black" stroke="black" points="547.656,-51.0196 555.392,-43.7797 544.83,-44.6157 547.656,-51.0196"/>
</g>
<!-- b0 -->
<g id="node9" class="node"><title>b0</title>
<polygon fill="lightgrey" stroke="black" points="815.581,-124 761.581,-124 761.581,-88 815.581,-88 815.581,-124"/>
<text text-anchor="middle" x="788.581" y="-102.3" font-family="Times New Roman,serif" font-size="14.00">b0</text>
</g>
<!-- b1 -->
<g id="node10" class="node"><title>b1</title>
<polygon fill="lightgrey" stroke="black" points="743.581,-124 689.581,-124 689.581,-88 743.581,-88 743.581,-124"/>
<text text-anchor="middle" x="716.581" y="-102.3" font-family="Times New Roman,serif" font-size="14.00">b1</text>
</g>
<!-- b2 -->
<g id="node11" class="node"><title>b2</title>
<polygon fill="lightgrey" stroke="black" points="671.581,-124 617.581,-124 617.581,-88 671.581,-88 671.581,-124"/>
<text text-anchor="middle" x="644.581" y="-102.3" font-family="Times New Roman,serif" font-size="14.00">b2</text>
</g>
<!-- b2&#45;&gt;a3 -->
<g id="edge4" class="edge"><title>b2&#45;&gt;a3</title>
<path fill="none" stroke="black" d="M642.423,-124.102C638.532,-146.943 627.903,-183.99 599.581,-190 585.995,-192.883 113.167,-192.883 99.5811,-190 75.1316,-184.811 63.8674,-156.493 58.7411,-134.151"/>
<polygon fill="black" stroke="black" points="62.1255,-133.225 56.7394,-124.102 55.2604,-134.593 62.1255,-133.225"/>
</g>
<!-- b3&#45;&gt;end -->
<g id="edge6" class="edge"><title>b3&#45;&gt;end</title>
<path fill="none" stroke="black" d="M572.334,-87.6966C572.224,-79.9827 572.091,-70.7125 571.968,-62.1124"/>
<polygon fill="black" stroke="black" points="575.468,-62.0533 571.825,-52.1043 568.469,-62.1533 575.468,-62.0533"/>
</g>
<!-- start -->
<g id="start" class="node"><title>start</title>
<polygon fill="none" stroke="black" points="393.581,-230 355.709,-212 393.581,-194 431.453,-212 393.581,-230"/>
<polyline fill="none" stroke="black" points="366.547,-217.151 366.547,-206.849 "/>
<polyline fill="none" stroke="black" points="382.743,-199.151 404.419,-199.151 "/>
<polyline fill="none" stroke="black" points="420.615,-206.849 420.615,-217.151 "/>
<polyline fill="none" stroke="black" points="404.419,-224.849 382.743,-224.849 "/>
<text text-anchor="middle" x="393.581" y="-208.3" font-family="Times New Roman,serif" font-size="14.00">start</text>
</g>
<!-- start&#45;&gt;a0 -->
<g id="edge1" class="edge"><title>start&#45;&gt;a0</title>
<path fill="none" stroke="black" d="M356.925,-211.329C267.048,-211.754 41.371,-210.36 18.5811,-186 -13.6045,-151.597 2.98696,-124.455 18.5811,-80 21.0855,-72.8603 25.2519,-66.0119 29.8798,-59.9057"/>
<polygon fill="black" stroke="black" points="32.6778,-62.0145 36.3638,-52.0815 27.2881,-57.5479 32.6778,-62.0145"/>
</g>
<!-- start&#45;&gt;b0 -->
<g id="edge2" class="edge"><title>start&#45;&gt;b0</title>
<path fill="none" stroke="black" d="M428.759,-210.572C513.976,-209.252 726.398,-204.159 752.581,-186 769.767,-174.081 778.9,-151.871 783.659,-134.029"/>
<polygon fill="black" stroke="black" points="787.103,-134.676 785.984,-124.14 780.289,-133.074 787.103,-134.676"/>
</g>
</g>
</svg>
