<?xml version="1.0" encoding="UTF-8" standalone="no"?>
<!DOCTYPE svg PUBLIC "-//W3C//DTD SVG 1.1//EN"
 "http://www.w3.org/Graphics/SVG/1.1/DTD/svg11.dtd">
<!-- Generated by graphviz version 2.38.0 (20140413.2041)
 -->
<!-- Title: cluster_0 Pages: 1 -->
<svg width="350pt" height="220pt"
 viewBox="0.00 0.00 350.30 220.00" xmlns="http://www.w3.org/2000/svg" xmlns:xlink="http://www.w3.org/1999/xlink">
<g id="graph0" class="graph" transform="scale(1 1) rotate(0) translate(4 216)">
<title>cluster_0</title>
<polygon fill="white" stroke="none" points="-4,4 -4,-216 346.298,-216 346.298,4 -4,4"/>
<g id="clust2" class="cluster"><title>cluster_1</title>
<polygon fill="none" stroke="black" points="136.298,-8 136.298,-204 206.298,-204 206.298,-8 136.298,-8"/>
</g>
<!-- a0 -->
<g id="node1" class="node"><title>a0</title>
<ellipse fill="none" stroke="black" cx="27.2976" cy="-178" rx="27" ry="18"/>
<text text-anchor="middle" x="27.2976" y="-174.3" font-family="Times New Roman,serif" font-size="14.00">a0</text>
</g>
<!-- eggs -->
<g id="node2" class="node"><title>eggs</title>
<ellipse fill="none" stroke="black" cx="27.2976" cy="-106" rx="27.0966" ry="18"/>
<text text-anchor="middle" x="27.2976" y="-102.3" font-family="Times New Roman,serif" font-size="14.00">eggs</text>
</g>
<!-- a0&#45;&#45;eggs -->
<g id="edge1" class="edge"><title>a0&#45;&#45;eggs</title>
<path fill="none" stroke="black" d="M27.2976,-159.697C27.2976,-148.846 27.2976,-134.917 27.2976,-124.104"/>
</g>
<!-- foo -->
<g id="node3" class="node"><title>foo</title>
<polygon fill="none" stroke="black" points="126.298,-196 72.2976,-196 72.2976,-160 126.298,-160 126.298,-196"/>
<text text-anchor="middle" x="99.2976" y="-174.3" font-family="Times New Roman,serif" font-size="14.00">foo</text>
</g>
<!-- bar -->
<g id="node4" class="node"><title>bar</title>
<polygon fill="none" stroke="black" points="126.298,-124 72.2976,-124 72.2976,-88 126.298,-88 126.298,-124"/>
<text text-anchor="middle" x="99.2976" y="-102.3" font-family="Times New Roman,serif" font-size="14.00">bar</text>
</g>
<!-- foo&#45;&#45;bar -->
<g id="edge2" class="edge"><title>foo&#45;&#45;bar</title>
<path fill="none" stroke="black" d="M99.2976,-159.697C99.2976,-148.846 99.2976,-134.917 99.2976,-124.104"/>
</g>
<!-- test1 -->
<g id="node5" class="node"><title>test1</title>
<polygon fill="none" stroke="black" points="198.298,-124 144.298,-124 144.298,-88 198.298,-88 198.298,-124"/>
<text text-anchor="middle" x="171.298" y="-102.3" font-family="Times New Roman,serif" font-size="14.00">test1</text>
</g>
<!-- test2 -->
<g id="node6" class="node"><title>test2</title>
<polygon fill="none" stroke="black" points="198.298,-52 144.298,-52 144.298,-16 198.298,-16 198.298,-52"/>
<text text-anchor="middle" x="171.298" y="-30.3" font-family="Times New Roman,serif" font-size="14.00">test2</text>
</g>
<!-- test1&#45;&#45;test2 -->
<g id="edge3" class="edge"><title>test1&#45;&#45;test2</title>
<path fill="none" stroke="black" d="M171.298,-87.6966C171.298,-76.8463 171.298,-62.9167 171.298,-52.1043"/>
</g>
<!-- a3 -->
<g id="node7" class="node"><title>a3</title>
<polygon fill="none" stroke="black" points="198.298,-196 144.298,-196 144.298,-160 198.298,-160 198.298,-196"/>
<text text-anchor="middle" x="171.298" y="-174.3" font-family="Times New Roman,serif" font-size="14.00">a3</text>
</g>
<!-- a3&#45;&#45;test1 -->
<g id="edge4" class="edge"><title>a3&#45;&#45;test1</title>
<path fill="none" stroke="black" d="M171.298,-159.697C171.298,-148.846 171.298,-134.917 171.298,-124.104"/>
</g>
<!-- a1 -->
<g id="node8" class="node"><title>a1</title>
<ellipse fill="none" stroke="black" cx="243.298" cy="-178" rx="27" ry="18"/>
<text text-anchor="middle" x="243.298" y="-174.3" font-family="Times New Roman,serif" font-size="14.00">a1</text>
</g>
<!-- a2 -->
<g id="node9" class="node"><title>a2</title>
<ellipse fill="none" stroke="black" cx="315.298" cy="-178" rx="27" ry="18"/>
<text text-anchor="middle" x="315.298" y="-174.3" font-family="Times New Roman,serif" font-size="14.00">a2</text>
</g>
</g>
</svg>
