<?xml version="1.0" encoding="UTF-8" standalone="no"?>
<!DOCTYPE svg PUBLIC "-//W3C//DTD SVG 1.1//EN"
 "http://www.w3.org/Graphics/SVG/1.1/DTD/svg11.dtd">
<!-- Generated by graphviz version 2.43.0 (0)
 -->
<!-- Title: classes_Pyreverse Pages: 1 -->
<svg width="1890pt" height="1441pt"
 viewBox="0.00 0.00 1890.04 1441.00" xmlns="http://www.w3.org/2000/svg" xmlns:xlink="http://www.w3.org/1999/xlink">
<g id="graph0" class="graph" transform="scale(1 1) rotate(0) translate(4 1437)">
<title>classes_Pyreverse</title>
<polygon fill="white" stroke="transparent" points="-4,4 -4,-1437 1886.04,-1437 1886.04,4 -4,4"/>
<!-- 0 -->
<g id="node1" class="node">
<title>0</title>
<polygon fill="none" stroke="black" points="888.63,-1296.5 888.63,-1432.5 1017.35,-1432.5 1017.35,-1296.5 888.63,-1296.5"/>
<text text-anchor="middle" x="952.99" y="-1417.3" font-family="Times,serif" font-size="14.00">ASTWalker</text>
<polyline fill="none" stroke="black" points="888.63,-1410.5 1017.35,-1410.5 "/>
<text text-anchor="start" x="896.63" y="-1395.3" font-family="Times,serif" font-size="14.00">_cache : dict</text>
<text text-anchor="start" x="896.63" y="-1381.3" font-family="Times,serif" font-size="14.00">handler</text>
<polyline fill="none" stroke="black" points="888.63,-1374.5 1017.35,-1374.5 "/>
<text text-anchor="start" x="896.63" y="-1359.3" font-family="Times,serif" font-size="14.00">__init__(handler)</text>
<text text-anchor="start" x="896.63" y="-1345.3" font-family="Times,serif" font-size="14.00">get_callbacks(node)</text>
<text text-anchor="start" x="896.63" y="-1331.3" font-family="Times,serif" font-size="14.00">leave(node)</text>
<text text-anchor="start" x="896.63" y="-1317.3" font-family="Times,serif" font-size="14.00">visit(node)</text>
<text text-anchor="start" x="896.63" y="-1303.3" font-family="Times,serif" font-size="14.00">walk(node, _done)</text>
</g>
<!-- 1 -->
<g id="node2" class="node">
<title>1</title>
<polygon fill="none" stroke="black" points="595.35,-766.5 595.35,-846.5 774.63,-846.5 774.63,-766.5 595.35,-766.5"/>
<text text-anchor="middle" x="684.99" y="-831.3" font-family="Times,serif" font-size="14.00">ClassDiadefGenerator</text>
<polyline fill="none" stroke="black" points="595.35,-824.5 774.63,-824.5 "/>
<text text-anchor="start" x="603.35" y="-809.3" font-family="Times,serif" font-size="14.00">classdiagram</text>
<polyline fill="none" stroke="black" points="595.35,-802.5 774.63,-802.5 "/>
<text text-anchor="start" x="603.35" y="-787.3" font-family="Times,serif" font-size="14.00">__init__(linker, handler)</text>
<text text-anchor="start" x="603.35" y="-773.3" font-family="Times,serif" font-size="14.00">class_diagram(project, klass)</text>
</g>
<!-- 4 -->
<g id="node5" class="node">
<title>4</title>
<polygon fill="none" stroke="black" points="544.22,-996.5 544.22,-1258.5 879.76,-1258.5 879.76,-996.5 544.22,-996.5"/>
<text text-anchor="middle" x="711.99" y="-1243.3" font-family="Times,serif" font-size="14.00">DiaDefGenerator</text>
<polyline fill="none" stroke="black" points="544.22,-1236.5 879.76,-1236.5 "/>
<text text-anchor="start" x="552.22" y="-1221.3" font-family="Times,serif" font-size="14.00">anc_level : int</text>
<text text-anchor="start" x="552.22" y="-1207.3" font-family="Times,serif" font-size="14.00">association_level : int</text>
<text text-anchor="start" x="552.22" y="-1193.3" font-family="Times,serif" font-size="14.00">classdiagram : NoneType</text>
<text text-anchor="start" x="552.22" y="-1179.3" font-family="Times,serif" font-size="14.00">config</text>
<text text-anchor="start" x="552.22" y="-1165.3" font-family="Times,serif" font-size="14.00">linker</text>
<text text-anchor="start" x="552.22" y="-1151.3" font-family="Times,serif" font-size="14.00">module_names</text>
<polyline fill="none" stroke="black" points="544.22,-1144.5 879.76,-1144.5 "/>
<text text-anchor="start" x="552.22" y="-1129.3" font-family="Times,serif" font-size="14.00">__init__(linker, handler)</text>
<text text-anchor="start" x="552.22" y="-1115.3" font-family="Times,serif" font-size="14.00">_get_levels()</text>
<text text-anchor="start" x="552.22" y="-1101.3" font-family="Times,serif" font-size="14.00">_set_default_options()</text>
<text text-anchor="start" x="552.22" y="-1087.3" font-family="Times,serif" font-size="14.00">_set_option(option)</text>
<text text-anchor="start" x="552.22" y="-1073.3" font-family="Times,serif" font-size="14.00">add_class(node)</text>
<text text-anchor="start" x="552.22" y="-1059.3" font-family="Times,serif" font-size="14.00">extract_classes(klass_node, anc_level, association_level)</text>
<text text-anchor="start" x="552.22" y="-1045.3" font-family="Times,serif" font-size="14.00">get_ancestors(node, level)</text>
<text text-anchor="start" x="552.22" y="-1031.3" font-family="Times,serif" font-size="14.00">get_associated(klass_node, level)</text>
<text text-anchor="start" x="552.22" y="-1017.3" font-family="Times,serif" font-size="14.00">get_title(node)</text>
<text text-anchor="start" x="552.22" y="-1003.3" font-family="Times,serif" font-size="14.00">show_node(node)</text>
</g>
<!-- 1&#45;&gt;4 -->
<g id="edge1" class="edge">
<title>1&#45;&gt;4</title>
<path fill="none" stroke="black" d="M688.3,-846.62C691.26,-881.63 695.79,-935.15 700.1,-986.05"/>
<polygon fill="none" stroke="black" points="696.63,-986.52 700.96,-996.19 703.6,-985.93 696.63,-986.52"/>
</g>
<!-- 2 -->
<g id="node3" class="node">
<title>2</title>
<polygon fill="none" stroke="black" points="481.82,-285.5 481.82,-603.5 846.16,-603.5 846.16,-285.5 481.82,-285.5"/>
<text text-anchor="middle" x="663.99" y="-588.3" font-family="Times,serif" font-size="14.00">ClassDiagram</text>
<polyline fill="none" stroke="black" points="481.82,-581.5 846.16,-581.5 "/>
<text text-anchor="start" x="489.82" y="-566.3" font-family="Times,serif" font-size="14.00">TYPE : str</text>
<text text-anchor="start" x="489.82" y="-552.3" font-family="Times,serif" font-size="14.00">_nodes : dict</text>
<text text-anchor="start" x="489.82" y="-538.3" font-family="Times,serif" font-size="14.00">depends : list</text>
<text text-anchor="start" x="489.82" y="-524.3" font-family="Times,serif" font-size="14.00">objects : list</text>
<text text-anchor="start" x="489.82" y="-510.3" font-family="Times,serif" font-size="14.00">relationships : dict</text>
<text text-anchor="start" x="489.82" y="-496.3" font-family="Times,serif" font-size="14.00">title</text>
<polyline fill="none" stroke="black" points="481.82,-489.5 846.16,-489.5 "/>
<text text-anchor="start" x="489.82" y="-474.3" font-family="Times,serif" font-size="14.00">__init__(title, mode)</text>
<text text-anchor="start" x="489.82" y="-460.3" font-family="Times,serif" font-size="14.00">add_object(title, node)</text>
<text text-anchor="start" x="489.82" y="-446.3" font-family="Times,serif" font-size="14.00">add_relationship(from_object, to_object, relation_type, name)</text>
<text text-anchor="start" x="489.82" y="-432.3" font-family="Times,serif" font-size="14.00">class_names(nodes)</text>
<text text-anchor="start" x="489.82" y="-418.3" font-family="Times,serif" font-size="14.00">classe(name)</text>
<text text-anchor="start" x="489.82" y="-404.3" font-family="Times,serif" font-size="14.00">classes()</text>
<text text-anchor="start" x="489.82" y="-390.3" font-family="Times,serif" font-size="14.00">extract_relationships()</text>
<text text-anchor="start" x="489.82" y="-376.3" font-family="Times,serif" font-size="14.00">get_attrs(node)</text>
<text text-anchor="start" x="489.82" y="-362.3" font-family="Times,serif" font-size="14.00">get_methods(node)</text>
<text text-anchor="start" x="489.82" y="-348.3" font-family="Times,serif" font-size="14.00">get_relationship(from_object, relation_type)</text>
<text text-anchor="start" x="489.82" y="-334.3" font-family="Times,serif" font-size="14.00">get_relationships(role)</text>
<text text-anchor="start" x="489.82" y="-320.3" font-family="Times,serif" font-size="14.00">has_node(node)</text>
<text text-anchor="start" x="489.82" y="-306.3" font-family="Times,serif" font-size="14.00">nodes()</text>
<text text-anchor="start" x="489.82" y="-292.3" font-family="Times,serif" font-size="14.00">object_from_node(node)</text>
</g>
<!-- 2&#45;&gt;1 -->
<g id="edge14" class="edge">
<title>2&#45;&gt;1</title>
<path fill="none" stroke="black" d="M673.22,-603.66C676.38,-657.83 679.69,-714.68 682,-754.19"/>
<polygon fill="black" stroke="black" points="682.01,-754.4 686.35,-760.16 682.71,-766.38 678.37,-760.63 682.01,-754.4"/>
<text text-anchor="middle" x="711.53" y="-624.8" font-family="Times,serif" font-size="14.00" fill="green">classdiagram</text>
</g>
<!-- 3 -->
<g id="node4" class="node">
<title>3</title>
<polygon fill="none" stroke="black" points="792.45,-731.5 792.45,-881.5 945.53,-881.5 945.53,-731.5 792.45,-731.5"/>
<text text-anchor="middle" x="868.99" y="-866.3" font-family="Times,serif" font-size="14.00">DefaultDiadefGenerator</text>
<polyline fill="none" stroke="black" points="792.45,-859.5 945.53,-859.5 "/>
<text text-anchor="start" x="800.45" y="-844.3" font-family="Times,serif" font-size="14.00">classdiagram</text>
<text text-anchor="start" x="800.45" y="-830.3" font-family="Times,serif" font-size="14.00">pkgdiagram : NoneType</text>
<polyline fill="none" stroke="black" points="792.45,-823.5 945.53,-823.5 "/>
<text text-anchor="start" x="800.45" y="-808.3" font-family="Times,serif" font-size="14.00">__init__(linker, handler)</text>
<text text-anchor="start" x="800.45" y="-794.3" font-family="Times,serif" font-size="14.00">leave_project(node)</text>
<text text-anchor="start" x="800.45" y="-780.3" font-family="Times,serif" font-size="14.00">visit_classdef(node)</text>
<text text-anchor="start" x="800.45" y="-766.3" font-family="Times,serif" font-size="14.00">visit_importfrom(node)</text>
<text text-anchor="start" x="800.45" y="-752.3" font-family="Times,serif" font-size="14.00">visit_module(node)</text>
<text text-anchor="start" x="800.45" y="-738.3" font-family="Times,serif" font-size="14.00">visit_project(node)</text>
</g>
<!-- 2&#45;&gt;3 -->
<g id="edge15" class="edge">
<title>2&#45;&gt;3</title>
<path fill="none" stroke="black" d="M755.25,-603.64C764.97,-620.62 774.7,-637.66 783.99,-654 796.28,-675.63 809.48,-699.06 821.72,-720.87"/>
<polygon fill="black" stroke="black" points="821.78,-720.97 828.2,-724.24 827.65,-731.43 821.22,-728.16 821.78,-720.97"/>
<text text-anchor="middle" x="808.53" y="-624.8" font-family="Times,serif" font-size="14.00" fill="green">classdiagram</text>
</g>
<!-- 9 -->
<g id="node10" class="node">
<title>9</title>
<polygon fill="none" stroke="black" points="277.99,-772.5 277.99,-840.5 331.99,-840.5 331.99,-772.5 277.99,-772.5"/>
<text text-anchor="middle" x="304.77" y="-825.3" font-family="Times,serif" font-size="14.00">Figure</text>
<polyline fill="none" stroke="black" points="277.99,-818.5 331.54,-818.5 "/>
<polyline fill="none" stroke="black" points="277.99,-794.5 331.54,-794.5 "/>
<text text-anchor="middle" x="304.77" y="-779.3" font-family="Times,serif" font-size="14.00"> </text>
</g>
<!-- 2&#45;&gt;9 -->
<g id="edge2" class="edge">
<title>2&#45;&gt;9</title>
<path fill="none" stroke="black" d="M506.27,-603.66C444.14,-665.96 378.48,-731.8 339.66,-770.74"/>
<polygon fill="none" stroke="black" points="336.84,-768.6 332.26,-778.16 341.8,-773.55 336.84,-768.6"/>
</g>
<!-- 10 -->
<g id="node11" class="node">
<title>10</title>
<polygon fill="none" stroke="black" points="469.11,-766.5 469.11,-846.5 576.87,-846.5 576.87,-766.5 469.11,-766.5"/>
<text text-anchor="middle" x="522.99" y="-831.3" font-family="Times,serif" font-size="14.00">FilterMixIn</text>
<polyline fill="none" stroke="black" points="469.11,-824.5 576.87,-824.5 "/>
<text text-anchor="start" x="477.11" y="-809.3" font-family="Times,serif" font-size="14.00">__mode : int</text>
<polyline fill="none" stroke="black" points="469.11,-802.5 576.87,-802.5 "/>
<text text-anchor="start" x="477.11" y="-787.3" font-family="Times,serif" font-size="14.00">__init__(mode)</text>
<text text-anchor="start" x="477.11" y="-773.3" font-family="Times,serif" font-size="14.00">show_attr(node)</text>
</g>
<!-- 2&#45;&gt;10 -->
<g id="edge3" class="edge">
<title>2&#45;&gt;10</title>
<path fill="none" stroke="black" d="M602.04,-603.66C580.32,-659.12 557.5,-717.39 541.99,-756.98"/>
<polygon fill="none" stroke="black" points="538.7,-755.8 538.31,-766.38 545.22,-758.35 538.7,-755.8"/>
</g>
<!-- 3&#45;&gt;4 -->
<g id="edge4" class="edge">
<title>3&#45;&gt;4</title>
<path fill="none" stroke="black" d="M832.38,-881.89C816.93,-913.29 798.41,-950.91 780.59,-987.12"/>
<polygon fill="none" stroke="black" points="777.35,-985.78 776.07,-996.3 783.63,-988.87 777.35,-985.78"/>
</g>
<!-- 13 -->
<g id="node14" class="node">
<title>13</title>
<polygon fill="none" stroke="black" points="907.3,-1087.5 907.3,-1167.5 998.68,-1167.5 998.68,-1087.5 907.3,-1087.5"/>
<text text-anchor="middle" x="952.99" y="-1152.3" font-family="Times,serif" font-size="14.00">LocalsVisitor</text>
<polyline fill="none" stroke="black" points="907.3,-1145.5 998.68,-1145.5 "/>
<text text-anchor="start" x="915.3" y="-1130.3" font-family="Times,serif" font-size="14.00">_visited : set</text>
<polyline fill="none" stroke="black" points="907.3,-1123.5 998.68,-1123.5 "/>
<text text-anchor="start" x="915.3" y="-1108.3" font-family="Times,serif" font-size="14.00">__init__()</text>
<text text-anchor="start" x="915.3" y="-1094.3" font-family="Times,serif" font-size="14.00">visit(node)</text>
</g>
<!-- 3&#45;&gt;13 -->
<g id="edge5" class="edge">
<title>3&#45;&gt;13</title>
<path fill="none" stroke="black" d="M888.58,-881.89C904.47,-942.25 926.42,-1025.61 940.16,-1077.77"/>
<polygon fill="none" stroke="black" points="936.77,-1078.67 942.71,-1087.45 943.54,-1076.88 936.77,-1078.67"/>
</g>
<!-- 5 -->
<g id="node6" class="node">
<title>5</title>
<polygon fill="none" stroke="black" points="1205.8,-77.5 1205.8,-157.5 1374.18,-157.5 1374.18,-77.5 1205.8,-77.5"/>
<text text-anchor="middle" x="1289.99" y="-142.3" font-family="Times,serif" font-size="14.00">DiadefsHandler</text>
<polyline fill="none" stroke="black" points="1205.8,-135.5 1374.18,-135.5 "/>
<text text-anchor="start" x="1213.8" y="-120.3" font-family="Times,serif" font-size="14.00">config</text>
<polyline fill="none" stroke="black" points="1205.8,-113.5 1374.18,-113.5 "/>
<text text-anchor="start" x="1213.8" y="-98.3" font-family="Times,serif" font-size="14.00">__init__(config)</text>
<text text-anchor="start" x="1213.8" y="-84.3" font-family="Times,serif" font-size="14.00">get_diadefs(project, linker)</text>
</g>
<!-- 6 -->
<g id="node7" class="node">
<title>6</title>
<polygon fill="none" stroke="black" points="0,-404.5 0,-484.5 127.98,-484.5 127.98,-404.5 0,-404.5"/>
<text text-anchor="middle" x="63.99" y="-469.3" font-family="Times,serif" font-size="14.00">DiagramEntity</text>
<polyline fill="none" stroke="black" points="0,-462.5 127.98,-462.5 "/>
<text text-anchor="start" x="8" y="-447.3" font-family="Times,serif" font-size="14.00">node : NoneType</text>
<text text-anchor="start" x="8" y="-433.3" font-family="Times,serif" font-size="14.00">title : str</text>
<polyline fill="none" stroke="black" points="0,-426.5 127.98,-426.5 "/>
<text text-anchor="start" x="8" y="-411.3" font-family="Times,serif" font-size="14.00">__init__(title, node)</text>
</g>
<!-- 6&#45;&gt;9 -->
<g id="edge6" class="edge">
<title>6&#45;&gt;9</title>
<path fill="none" stroke="black" d="M78.69,-484.76C91.83,-517.76 112.72,-565.58 136.99,-604 176.89,-667.18 234.65,-732.14 270.99,-770.65"/>
<polygon fill="none" stroke="black" points="268.53,-773.15 277.96,-777.99 273.61,-768.33 268.53,-773.15"/>
</g>
<!-- 7 -->
<g id="node8" class="node">
<title>7</title>
<polygon fill="none" stroke="black" points="1252.69,-717.5 1252.69,-895.5 1455.29,-895.5 1455.29,-717.5 1252.69,-717.5"/>
<text text-anchor="middle" x="1353.99" y="-880.3" font-family="Times,serif" font-size="14.00">DiagramWriter</text>
<polyline fill="none" stroke="black" points="1252.69,-873.5 1455.29,-873.5 "/>
<text text-anchor="start" x="1260.69" y="-858.3" font-family="Times,serif" font-size="14.00">config</text>
<text text-anchor="start" x="1260.69" y="-844.3" font-family="Times,serif" font-size="14.00">printer : NoneType</text>
<polyline fill="none" stroke="black" points="1252.69,-837.5 1455.29,-837.5 "/>
<text text-anchor="start" x="1260.69" y="-822.3" font-family="Times,serif" font-size="14.00">__init__(config, styles)</text>
<text text-anchor="start" x="1260.69" y="-808.3" font-family="Times,serif" font-size="14.00">close_graph()</text>
<text text-anchor="start" x="1260.69" y="-794.3" font-family="Times,serif" font-size="14.00">get_title(obj)</text>
<text text-anchor="start" x="1260.69" y="-780.3" font-family="Times,serif" font-size="14.00">get_values(obj)</text>
<text text-anchor="start" x="1260.69" y="-766.3" font-family="Times,serif" font-size="14.00">set_printer(file_name, basename)</text>
<text text-anchor="start" x="1260.69" y="-752.3" font-family="Times,serif" font-size="14.00">write(diadefs)</text>
<text text-anchor="start" x="1260.69" y="-738.3" font-family="Times,serif" font-size="14.00">write_classes(diagram)</text>
<text text-anchor="start" x="1260.69" y="-724.3" font-family="Times,serif" font-size="14.00">write_packages(diagram)</text>
</g>
<!-- 8 -->
<g id="node9" class="node">
<title>8</title>
<polygon fill="none" stroke="black" points="1190.69,-376.5 1190.69,-512.5 1393.29,-512.5 1393.29,-376.5 1190.69,-376.5"/>
<text text-anchor="middle" x="1291.99" y="-497.3" font-family="Times,serif" font-size="14.00">DotWriter</text>
<polyline fill="none" stroke="black" points="1190.69,-490.5 1393.29,-490.5 "/>
<text text-anchor="start" x="1198.69" y="-475.3" font-family="Times,serif" font-size="14.00">file_name</text>
<text text-anchor="start" x="1198.69" y="-461.3" font-family="Times,serif" font-size="14.00">printer : DotBackend</text>
<polyline fill="none" stroke="black" points="1190.69,-454.5 1393.29,-454.5 "/>
<text text-anchor="start" x="1198.69" y="-439.3" font-family="Times,serif" font-size="14.00">__init__(config)</text>
<text text-anchor="start" x="1198.69" y="-425.3" font-family="Times,serif" font-size="14.00">close_graph()</text>
<text text-anchor="start" x="1198.69" y="-411.3" font-family="Times,serif" font-size="14.00">get_title(obj)</text>
<text text-anchor="start" x="1198.69" y="-397.3" font-family="Times,serif" font-size="14.00">get_values(obj)</text>
<text text-anchor="start" x="1198.69" y="-383.3" font-family="Times,serif" font-size="14.00">set_printer(file_name, basename)</text>
</g>
<!-- 8&#45;&gt;7 -->
<g id="edge7" class="edge">
<title>8&#45;&gt;7</title>
<path fill="none" stroke="black" d="M1303.58,-512.79C1313.01,-567.54 1326.45,-645.57 1337.08,-707.29"/>
<polygon fill="none" stroke="black" points="1333.68,-708.18 1338.82,-717.44 1340.58,-707 1333.68,-708.18"/>
</g>
<!-- 11 -->
<g id="node12" class="node">
<title>11</title>
<polygon fill="none" stroke="black" points="1021.79,-1080.5 1021.79,-1174.5 1176.19,-1174.5 1176.19,-1080.5 1021.79,-1080.5"/>
<text text-anchor="middle" x="1098.99" y="-1159.3" font-family="Times,serif" font-size="14.00">IdGeneratorMixIn</text>
<polyline fill="none" stroke="black" points="1021.79,-1152.5 1176.19,-1152.5 "/>
<text text-anchor="start" x="1029.79" y="-1137.3" font-family="Times,serif" font-size="14.00">id_count : int</text>
<polyline fill="none" stroke="black" points="1021.79,-1130.5 1176.19,-1130.5 "/>
<text text-anchor="start" x="1029.79" y="-1115.3" font-family="Times,serif" font-size="14.00">__init__(start_value)</text>
<text text-anchor="start" x="1029.79" y="-1101.3" font-family="Times,serif" font-size="14.00">generate_id()</text>
<text text-anchor="start" x="1029.79" y="-1087.3" font-family="Times,serif" font-size="14.00">init_counter(start_value)</text>
</g>
<!-- 12 -->
<g id="node13" class="node">
<title>12</title>
<polygon fill="none" stroke="black" points="963.47,-654.5 963.47,-958.5 1234.51,-958.5 1234.51,-654.5 963.47,-654.5"/>
<text text-anchor="middle" x="1098.99" y="-943.3" font-family="Times,serif" font-size="14.00">Linker</text>
<polyline fill="none" stroke="black" points="963.47,-936.5 1234.51,-936.5 "/>
<text text-anchor="start" x="971.47" y="-921.3" font-family="Times,serif" font-size="14.00">inherited_interfaces : int</text>
<text text-anchor="start" x="971.47" y="-907.3" font-family="Times,serif" font-size="14.00">link_class</text>
<text text-anchor="start" x="971.47" y="-893.3" font-family="Times,serif" font-size="14.00">link_function</text>
<text text-anchor="start" x="971.47" y="-879.3" font-family="Times,serif" font-size="14.00">link_module</text>
<text text-anchor="start" x="971.47" y="-865.3" font-family="Times,serif" font-size="14.00">link_project</text>
<text text-anchor="start" x="971.47" y="-851.3" font-family="Times,serif" font-size="14.00">project</text>
<text text-anchor="start" x="971.47" y="-837.3" font-family="Times,serif" font-size="14.00">tag : bool</text>
<polyline fill="none" stroke="black" points="963.47,-830.5 1234.51,-830.5 "/>
<text text-anchor="start" x="971.47" y="-815.3" font-family="Times,serif" font-size="14.00">__init__(project, inherited_interfaces, tag)</text>
<text text-anchor="start" x="971.47" y="-801.3" font-family="Times,serif" font-size="14.00">_imported_module(node, mod_path, relative)</text>
<text text-anchor="start" x="971.47" y="-787.3" font-family="Times,serif" font-size="14.00">compute_module(context_name, mod_path)</text>
<text text-anchor="start" x="971.47" y="-773.3" font-family="Times,serif" font-size="14.00">handle_assignattr_type(node, parent)</text>
<text text-anchor="start" x="971.47" y="-759.3" font-family="Times,serif" font-size="14.00">visit_assignname(node)</text>
<text text-anchor="start" x="971.47" y="-745.3" font-family="Times,serif" font-size="14.00">visit_classdef(node)</text>
<text text-anchor="start" x="971.47" y="-731.3" font-family="Times,serif" font-size="14.00">visit_functiondef(node)</text>
<text text-anchor="start" x="971.47" y="-717.3" font-family="Times,serif" font-size="14.00">visit_import(node)</text>
<text text-anchor="start" x="971.47" y="-703.3" font-family="Times,serif" font-size="14.00">visit_importfrom(node)</text>
<text text-anchor="start" x="971.47" y="-689.3" font-family="Times,serif" font-size="14.00">visit_module(node)</text>
<text text-anchor="start" x="971.47" y="-675.3" font-family="Times,serif" font-size="14.00">visit_package(node)</text>
<text text-anchor="start" x="971.47" y="-661.3" font-family="Times,serif" font-size="14.00">visit_project(node)</text>
</g>
<!-- 12&#45;&gt;11 -->
<g id="edge8" class="edge">
<title>12&#45;&gt;11</title>
<path fill="none" stroke="black" d="M1098.99,-958.59C1098.99,-998.38 1098.99,-1038.87 1098.99,-1070.11"/>
<polygon fill="none" stroke="black" points="1095.49,-1070.34 1098.99,-1080.34 1102.49,-1070.34 1095.49,-1070.34"/>
</g>
<!-- 12&#45;&gt;13 -->
<g id="edge9" class="edge">
<title>12&#45;&gt;13</title>
<path fill="none" stroke="black" d="M1029.84,-958.59C1010.05,-1001.83 989.88,-1045.89 975.17,-1078.03"/>
<polygon fill="none" stroke="black" points="971.96,-1076.63 970.98,-1087.18 978.33,-1079.55 971.96,-1076.63"/>
</g>
<!-- 13&#45;&gt;0 -->
<g id="edge10" class="edge">
<title>13&#45;&gt;0</title>
<path fill="none" stroke="black" d="M952.99,-1167.57C952.99,-1199.75 952.99,-1246.36 952.99,-1286.06"/>
<polygon fill="none" stroke="black" points="949.49,-1286.25 952.99,-1296.25 956.49,-1286.25 949.49,-1286.25"/>
</g>
<!-- 14 -->
<g id="node15" class="node">
<title>14</title>
<polygon fill="none" stroke="black" points="702.19,-56.5 702.19,-178.5 939.79,-178.5 939.79,-56.5 702.19,-56.5"/>
<text text-anchor="middle" x="820.99" y="-163.3" font-family="Times,serif" font-size="14.00">PackageDiagram</text>
<polyline fill="none" stroke="black" points="702.19,-156.5 939.79,-156.5 "/>
<text text-anchor="start" x="710.19" y="-141.3" font-family="Times,serif" font-size="14.00">TYPE : str</text>
<polyline fill="none" stroke="black" points="702.19,-134.5 939.79,-134.5 "/>
<text text-anchor="start" x="710.19" y="-119.3" font-family="Times,serif" font-size="14.00">add_from_depend(node, from_module)</text>
<text text-anchor="start" x="710.19" y="-105.3" font-family="Times,serif" font-size="14.00">extract_relationships()</text>
<text text-anchor="start" x="710.19" y="-91.3" font-family="Times,serif" font-size="14.00">get_module(name, node)</text>
<text text-anchor="start" x="710.19" y="-77.3" font-family="Times,serif" font-size="14.00">module(name)</text>
<text text-anchor="start" x="710.19" y="-63.3" font-family="Times,serif" font-size="14.00">modules()</text>
</g>
<!-- 14&#45;&gt;2 -->
<g id="edge11" class="edge">
<title>14&#45;&gt;2</title>
<path fill="none" stroke="black" d="M791.83,-178.87C778.4,-206.67 761.72,-241.19 744.9,-276"/>
<polygon fill="none" stroke="black" points="741.59,-274.82 740.39,-285.34 747.89,-277.86 741.59,-274.82"/>
</g>
<!-- 14&#45;&gt;3 -->
<g id="edge16" class="edge">
<title>14&#45;&gt;3</title>
<path fill="none" stroke="black" d="M835.9,-178.59C843.04,-210.07 850.91,-249.39 854.99,-285 872.41,-436.89 872.92,-615.26 871.26,-718.83"/>
<polygon fill="black" stroke="black" points="871.26,-719.09 875.16,-725.16 871.05,-731.09 867.16,-725.02 871.26,-719.09"/>
<text text-anchor="middle" x="905.42" y="-440.3" font-family="Times,serif" font-size="14.00" fill="green">pkgdiagram</text>
</g>
<!-- 15 -->
<g id="node16" class="node">
<title>15</title>
<polygon fill="none" stroke="black" points="1646.12,-0.5 1646.12,-234.5 1767.86,-234.5 1767.86,-0.5 1646.12,-0.5"/>
<text text-anchor="middle" x="1706.99" y="-219.3" font-family="Times,serif" font-size="14.00">Project</text>
<polyline fill="none" stroke="black" points="1646.12,-212.5 1767.86,-212.5 "/>
<text text-anchor="start" x="1654.12" y="-197.3" font-family="Times,serif" font-size="14.00">__getitem__</text>
<text text-anchor="start" x="1654.12" y="-183.3" font-family="Times,serif" font-size="14.00">__iter__</text>
<text text-anchor="start" x="1654.12" y="-169.3" font-family="Times,serif" font-size="14.00">items</text>
<text text-anchor="start" x="1654.12" y="-155.3" font-family="Times,serif" font-size="14.00">keys</text>
<text text-anchor="start" x="1654.12" y="-141.3" font-family="Times,serif" font-size="14.00">locals : dict</text>
<text text-anchor="start" x="1654.12" y="-127.3" font-family="Times,serif" font-size="14.00">modules : list</text>
<text text-anchor="start" x="1654.12" y="-113.3" font-family="Times,serif" font-size="14.00">name : str</text>
<text text-anchor="start" x="1654.12" y="-99.3" font-family="Times,serif" font-size="14.00">path : NoneType</text>
<text text-anchor="start" x="1654.12" y="-85.3" font-family="Times,serif" font-size="14.00">values</text>
<polyline fill="none" stroke="black" points="1646.12,-78.5 1767.86,-78.5 "/>
<text text-anchor="start" x="1654.12" y="-63.3" font-family="Times,serif" font-size="14.00">__init__(name)</text>
<text text-anchor="start" x="1654.12" y="-49.3" font-family="Times,serif" font-size="14.00">__repr__()</text>
<text text-anchor="start" x="1654.12" y="-35.3" font-family="Times,serif" font-size="14.00">add_module(node)</text>
<text text-anchor="start" x="1654.12" y="-21.3" font-family="Times,serif" font-size="14.00">get_children()</text>
<text text-anchor="start" x="1654.12" y="-7.3" font-family="Times,serif" font-size="14.00">get_module(name)</text>
</g>
<!-- 16 -->
<g id="node17" class="node">
<title>16</title>
<polygon fill="none" stroke="black" points="146.14,-390.5 146.14,-498.5 463.83,-498.5 463.83,-390.5 146.14,-390.5"/>
<text text-anchor="middle" x="304.99" y="-483.3" font-family="Times,serif" font-size="14.00">Relationship</text>
<polyline fill="none" stroke="black" points="146.14,-476.5 463.83,-476.5 "/>
<text text-anchor="start" x="154.14" y="-461.3" font-family="Times,serif" font-size="14.00">from_object</text>
<text text-anchor="start" x="154.14" y="-447.3" font-family="Times,serif" font-size="14.00">name : NoneType</text>
<text text-anchor="start" x="154.14" y="-433.3" font-family="Times,serif" font-size="14.00">to_object</text>
<text text-anchor="start" x="154.14" y="-419.3" font-family="Times,serif" font-size="14.00">type</text>
<polyline fill="none" stroke="black" points="146.14,-412.5 463.83,-412.5 "/>
<text text-anchor="start" x="154.14" y="-397.3" font-family="Times,serif" font-size="14.00">__init__(from_object, to_object, relation_type, name)</text>
</g>
<!-- 16&#45;&gt;9 -->
<g id="edge12" class="edge">
<title>16&#45;&gt;9</title>
<path fill="none" stroke="black" d="M304.99,-498.62C304.99,-570.1 304.99,-695.88 304.99,-762.03"/>
<polygon fill="none" stroke="black" points="301.49,-762.12 304.99,-772.12 308.49,-762.12 301.49,-762.12"/>
</g>
<!-- 17 -->
<g id="node18" class="node">
<title>17</title>
<polygon fill="none" stroke="black" points="1785.93,-77.5 1785.93,-157.5 1882.04,-157.5 1882.04,-77.5 1785.93,-77.5"/>
<text text-anchor="middle" x="1833.99" y="-142.3" font-family="Times,serif" font-size="14.00">Run</text>
<polyline fill="none" stroke="black" points="1785.93,-135.5 1882.04,-135.5 "/>
<text text-anchor="start" x="1793.93" y="-120.3" font-family="Times,serif" font-size="14.00">options : tuple</text>
<polyline fill="none" stroke="black" points="1785.93,-113.5 1882.04,-113.5 "/>
<text text-anchor="start" x="1793.93" y="-98.3" font-family="Times,serif" font-size="14.00">__init__(args)</text>
<text text-anchor="start" x="1793.93" y="-84.3" font-family="Times,serif" font-size="14.00">run(args)</text>
</g>
<!-- 18 -->
<g id="node19" class="node">
<title>18</title>
<polygon fill="none" stroke="black" points="1398.08,-14.5 1398.08,-220.5 1627.9,-220.5 1627.9,-14.5 1398.08,-14.5"/>
<text text-anchor="middle" x="1512.99" y="-205.3" font-family="Times,serif" font-size="14.00">VCGPrinter</text>
<polyline fill="none" stroke="black" points="1398.08,-198.5 1627.9,-198.5 "/>
<text text-anchor="start" x="1406.08" y="-183.3" font-family="Times,serif" font-size="14.00">_indent : str</text>
<text text-anchor="start" x="1406.08" y="-169.3" font-family="Times,serif" font-size="14.00">_stream</text>
<text text-anchor="start" x="1406.08" y="-155.3" font-family="Times,serif" font-size="14.00">emit_edge</text>
<text text-anchor="start" x="1406.08" y="-141.3" font-family="Times,serif" font-size="14.00">emit_node</text>
<polyline fill="none" stroke="black" points="1398.08,-134.5 1627.9,-134.5 "/>
<text text-anchor="start" x="1406.08" y="-119.3" font-family="Times,serif" font-size="14.00">__init__(output_stream)</text>
<text text-anchor="start" x="1406.08" y="-105.3" font-family="Times,serif" font-size="14.00">_dec_indent()</text>
<text text-anchor="start" x="1406.08" y="-91.3" font-family="Times,serif" font-size="14.00">_inc_indent()</text>
<text text-anchor="start" x="1406.08" y="-77.3" font-family="Times,serif" font-size="14.00">_write_attributes(attributes_dict)</text>
<text text-anchor="start" x="1406.08" y="-63.3" font-family="Times,serif" font-size="14.00">close_graph()</text>
<text text-anchor="start" x="1406.08" y="-49.3" font-family="Times,serif" font-size="14.00">edge(from_node, to_node, edge_type)</text>
<text text-anchor="start" x="1406.08" y="-35.3" font-family="Times,serif" font-size="14.00">node(title)</text>
<text text-anchor="start" x="1406.08" y="-21.3" font-family="Times,serif" font-size="14.00">open_graph()</text>
</g>
<!-- 19 -->
<g id="node20" class="node">
<title>19</title>
<polygon fill="none" stroke="black" points="1411.69,-376.5 1411.69,-512.5 1614.29,-512.5 1614.29,-376.5 1411.69,-376.5"/>
<text text-anchor="middle" x="1512.99" y="-497.3" font-family="Times,serif" font-size="14.00">VCGWriter</text>
<polyline fill="none" stroke="black" points="1411.69,-490.5 1614.29,-490.5 "/>
<text text-anchor="start" x="1419.69" y="-475.3" font-family="Times,serif" font-size="14.00">graph_file</text>
<text text-anchor="start" x="1419.69" y="-461.3" font-family="Times,serif" font-size="14.00">printer</text>
<polyline fill="none" stroke="black" points="1411.69,-454.5 1614.29,-454.5 "/>
<text text-anchor="start" x="1419.69" y="-439.3" font-family="Times,serif" font-size="14.00">__init__(config)</text>
<text text-anchor="start" x="1419.69" y="-425.3" font-family="Times,serif" font-size="14.00">close_graph()</text>
<text text-anchor="start" x="1419.69" y="-411.3" font-family="Times,serif" font-size="14.00">get_title(obj)</text>
<text text-anchor="start" x="1419.69" y="-397.3" font-family="Times,serif" font-size="14.00">get_values(obj)</text>
<text text-anchor="start" x="1419.69" y="-383.3" font-family="Times,serif" font-size="14.00">set_printer(file_name, basename)</text>
</g>
<!-- 18&#45;&gt;19 -->
<g id="edge17" class="edge">
<title>18&#45;&gt;19</title>
<path fill="none" stroke="black" d="M1512.99,-220.89C1512.99,-267.22 1512.99,-321.14 1512.99,-364.31"/>
<polygon fill="black" stroke="black" points="1512.99,-364.47 1516.99,-370.47 1512.99,-376.47 1508.99,-370.47 1512.99,-364.47"/>
<text text-anchor="middle" x="1531.65" y="-255.8" font-family="Times,serif" font-size="14.00" fill="green">printer</text>
</g>
<!-- 19&#45;&gt;7 -->
<g id="edge13" class="edge">
<title>19&#45;&gt;7</title>
<path fill="none" stroke="black" d="M1483.27,-512.79C1458.99,-567.77 1424.34,-646.21 1397.03,-708.06"/>
<polygon fill="none" stroke="black" points="1393.72,-706.88 1392.88,-717.44 1400.12,-709.71 1393.72,-706.88"/>
</g>
</g>
</svg>
