<?xml version="1.0" encoding="UTF-8" standalone="no"?>
<!DOCTYPE svg PUBLIC "-//W3C//DTD SVG 1.1//EN"
 "http://www.w3.org/Graphics/SVG/1.1/DTD/svg11.dtd">
<!-- Generated by graphviz version 2.43.0 (0)
 -->
<!-- Title: packages_Pyreverse Pages: 1 -->
<svg width="612pt" height="260pt"
 viewBox="0.00 0.00 612.50 260.00" xmlns="http://www.w3.org/2000/svg" xmlns:xlink="http://www.w3.org/1999/xlink">
<g id="graph0" class="graph" transform="scale(1 1) rotate(0) translate(4 256)">
<title>packages_Pyreverse</title>
<polygon fill="white" stroke="transparent" points="-4,4 -4,-256 608.5,-256 608.5,4 -4,4"/>
<!-- 0 -->
<g id="node1" class="node">
<title>0</title>
<polygon fill="none" stroke="black" points="106.38,-180 0.21,-180 0.21,-144 106.38,-144 106.38,-180"/>
<text text-anchor="middle" x="53.29" y="-157.8" font-family="Times,serif" font-size="14.00">pylint.pyreverse</text>
</g>
<!-- 1 -->
<g id="node2" class="node">
<title>1</title>
<polygon fill="none" stroke="black" points="375.08,-108 209.5,-108 209.5,-72 375.08,-72 375.08,-108"/>
<text text-anchor="middle" x="292.29" y="-85.8" font-family="Times,serif" font-size="14.00">pylint.pyreverse.diadefslib</text>
</g>
<!-- 2 -->
<g id="node3" class="node">
<title>2</title>
<polygon fill="none" stroke="black" points="337.19,-180 175.39,-180 175.39,-144 337.19,-144 337.19,-180"/>
<text text-anchor="middle" x="256.29" y="-157.8" font-family="Times,serif" font-size="14.00">pylint.pyreverse.diagrams</text>
</g>
<!-- 1&#45;&gt;2 -->
<g id="edge1" class="edge">
<title>1&#45;&gt;2</title>
<path fill="none" stroke="black" d="M283.39,-108.3C279.29,-116.27 274.34,-125.9 269.8,-134.74"/>
<polygon fill="black" stroke="black" points="265.09,-143.9 265.66,-132.94 267.37,-139.45 269.66,-135 269.66,-135 269.66,-135 267.37,-139.45 273.66,-137.06 265.09,-143.9 265.09,-143.9"/>
</g>
<!-- 5 -->
<g id="node6" class="node">
<title>5</title>
<polygon fill="none" stroke="black" points="432.49,-252 298.09,-252 298.09,-216 432.49,-216 432.49,-252"/>
<text text-anchor="middle" x="365.29" y="-229.8" font-family="Times,serif" font-size="14.00">pylint.pyreverse.utils</text>
</g>
<!-- 1&#45;&gt;5 -->
<g id="edge2" class="edge">
<title>1&#45;&gt;5</title>
<path fill="none" stroke="black" d="M315.12,-108.05C326.15,-117.47 338.64,-130.07 346.29,-144 356.79,-163.1 361.49,-187.45 363.59,-205.86"/>
<polygon fill="black" stroke="black" points="364.56,-215.92 359.12,-206.39 364.08,-210.94 363.6,-205.96 363.6,-205.96 363.6,-205.96 364.08,-210.94 368.08,-205.53 364.56,-215.92 364.56,-215.92"/>
</g>
<!-- 2&#45;&gt;5 -->
<g id="edge3" class="edge">
<title>2&#45;&gt;5</title>
<path fill="none" stroke="black" d="M282.96,-180.12C297.08,-189.19 314.6,-200.45 329.85,-210.24"/>
<polygon fill="black" stroke="black" points="338.52,-215.81 327.68,-214.19 334.32,-213.11 330.11,-210.41 330.11,-210.41 330.11,-210.41 334.32,-213.11 332.54,-206.62 338.52,-215.81 338.52,-215.81"/>
</g>
<!-- 3 -->
<g id="node4" class="node">
<title>3</title>
<polygon fill="none" stroke="black" points="192.19,-108 30.39,-108 30.39,-72 192.19,-72 192.19,-108"/>
<text text-anchor="middle" x="111.29" y="-85.8" font-family="Times,serif" font-size="14.00">pylint.pyreverse.inspector</text>
</g>
<!-- 3&#45;&gt;0 -->
<g id="edge4" class="edge">
<title>3&#45;&gt;0</title>
<path fill="none" stroke="black" d="M96.95,-108.3C90,-116.7 81.52,-126.93 73.89,-136.14"/>
<polygon fill="black" stroke="black" points="67.46,-143.9 70.38,-133.32 70.65,-140.05 73.84,-136.2 73.84,-136.2 73.84,-136.2 70.65,-140.05 77.31,-139.07 67.46,-143.9 67.46,-143.9"/>
</g>
<!-- 4 -->
<g id="node5" class="node">
<title>4</title>
<polygon fill="none" stroke="black" points="270.37,-36 132.22,-36 132.22,0 270.37,0 270.37,-36"/>
<text text-anchor="middle" x="201.29" y="-13.8" font-family="Times,serif" font-size="14.00">pylint.pyreverse.main</text>
</g>
<!-- 4&#45;&gt;0 -->
<g id="edge5" class="edge">
<title>4&#45;&gt;0</title>
<path fill="none" stroke="black" d="M131.84,-30.63C87.13,-39.7 34.9,-53.8 21.29,-72 7.13,-90.93 19.02,-116.71 32.13,-135.65"/>
<polygon fill="black" stroke="black" points="38.15,-143.83 28.6,-138.45 35.19,-139.8 32.22,-135.78 32.22,-135.78 32.22,-135.78 35.19,-139.8 35.84,-133.11 38.15,-143.83 38.15,-143.83"/>
</g>
<!-- 4&#45;&gt;1 -->
<g id="edge6" class="edge">
<title>4&#45;&gt;1</title>
<path fill="none" stroke="black" d="M223.79,-36.3C235.25,-45.12 249.35,-55.97 261.78,-65.53"/>
<polygon fill="black" stroke="black" points="270.06,-71.9 259.39,-69.37 266.09,-68.85 262.13,-65.8 262.13,-65.8 262.13,-65.8 266.09,-68.85 264.87,-62.23 270.06,-71.9 270.06,-71.9"/>
</g>
<!-- 4&#45;&gt;3 -->
<g id="edge7" class="edge">
<title>4&#45;&gt;3</title>
<path fill="none" stroke="black" d="M179.04,-36.3C167.71,-45.12 153.76,-55.97 141.47,-65.53"/>
<polygon fill="black" stroke="black" points="133.28,-71.9 138.41,-62.2 137.23,-68.83 141.18,-65.76 141.18,-65.76 141.18,-65.76 137.23,-68.83 143.94,-69.31 133.28,-71.9 133.28,-71.9"/>
</g>
<!-- 4&#45;&gt;5 -->
<g id="edge8" class="edge">
<title>4&#45;&gt;5</title>
<path fill="none" stroke="black" d="M270.42,-30.19C316.19,-39.17 370.28,-53.36 384.29,-72 413.84,-111.32 394.19,-171.98 378.75,-206.52"/>
<polygon fill="black" stroke="black" points="374.35,-215.94 374.5,-204.98 376.46,-211.41 378.58,-206.88 378.58,-206.88 378.58,-206.88 376.46,-211.41 382.66,-208.79 374.35,-215.94 374.35,-215.94"/>
</g>
<!-- 6 -->
<g id="node7" class="node">
<title>6</title>
<polygon fill="none" stroke="black" points="604.71,-252 449.88,-252 449.88,-216 604.71,-216 604.71,-252"/>
<text text-anchor="middle" x="527.29" y="-229.8" font-family="Times,serif" font-size="14.00">pylint.pyreverse.vcgutils</text>
</g>
<!-- 7 -->
<g id="node8" class="node">
<title>7</title>
<polygon fill="none" stroke="black" points="586.8,-180 443.78,-180 443.78,-144 586.8,-144 586.8,-180"/>
<text text-anchor="middle" x="515.29" y="-157.8" font-family="Times,serif" font-size="14.00">pylint.pyreverse.writer</text>
</g>
<!-- 7&#45;&gt;5 -->
<g id="edge9" class="edge">
<title>7&#45;&gt;5</title>
<path fill="none" stroke="black" d="M478.6,-180.12C458.27,-189.61 432.82,-201.49 411.19,-211.58"/>
<polygon fill="black" stroke="black" points="401.87,-215.93 409.03,-207.62 406.4,-213.82 410.93,-211.7 410.93,-211.7 410.93,-211.7 406.4,-213.82 412.83,-215.78 401.87,-215.93 401.87,-215.93"/>
</g>
<!-- 7&#45;&gt;6 -->
<g id="edge10" class="edge">
<title>7&#45;&gt;6</title>
<path fill="none" stroke="black" d="M518.26,-180.3C519.58,-188.02 521.17,-197.29 522.64,-205.89"/>
<polygon fill="black" stroke="black" points="524.36,-215.9 518.23,-206.8 523.51,-210.97 522.67,-206.04 522.67,-206.04 522.67,-206.04 523.51,-210.97 527.1,-205.28 524.36,-215.9 524.36,-215.9"/>
</g>
</g>
</svg>
