<?xml version="1.0" encoding="UTF-8" standalone="no"?>
<!DOCTYPE svg PUBLIC "-//W3C//DTD SVG 1.1//EN"
 "http://www.w3.org/Graphics/SVG/1.1/DTD/svg11.dtd">
<!-- Generated by graphviz version 2.43.0 (0)
 -->
<!-- Title: %3 Pages: 1 -->
<svg width="172pt" height="276pt"
 viewBox="0.00 0.00 171.91 276.00" xmlns="http://www.w3.org/2000/svg" xmlns:xlink="http://www.w3.org/1999/xlink">
<g id="graph0" class="graph" transform="scale(1 1) rotate(0) translate(4 272)">
<title>%3</title>
<polygon fill="white" stroke="transparent" points="-4,4 -4,-272 167.91,-272 167.91,4 -4,4"/>
<!-- start -->
<g id="start" class="node">
<title>start</title>
<polygon fill="none" stroke="black" points="68.71,-268 14.71,-268 14.71,-232 68.71,-232 68.71,-268"/>
<text text-anchor="middle" x="41.71" y="-245.8" font-family="Times,serif" font-size="14.00">start</text>
</g>
<!-- input -->
<g id="input" class="node">
<title>input</title>
<polygon fill="none" stroke="black" points="68.71,-195 14.71,-195 14.71,-159 68.71,-159 68.71,-195"/>
<text text-anchor="middle" x="41.71" y="-172.8" font-family="Times,serif" font-size="14.00">input</text>
</g>
<!-- start&#45;&gt;input -->
<g id="start&#45;input" class="edge">
<title>start&#45;&gt;input</title>
<path fill="none" stroke="black" d="M41.71,-231.81C41.71,-223.79 41.71,-214.05 41.71,-205.07"/>
<polygon fill="black" stroke="black" points="45.21,-205.03 41.71,-195.03 38.21,-205.03 45.21,-205.03"/>
</g>
<!-- end -->
<g id="end" class="node">
<title>end</title>
<polygon fill="none" stroke="black" points="137.71,-36 83.71,-36 83.71,0 137.71,0 137.71,-36"/>
<text text-anchor="middle" x="110.71" y="-13.8" font-family="Times,serif" font-size="14.00">end</text>
</g>
<!-- if_valid -->
<g id="if_valid" class="node">
<title>if_valid</title>
<polygon fill="none" stroke="black" points="110.71,-122 57.33,-104 110.71,-86 164.1,-104 110.71,-122"/>
<text text-anchor="middle" x="110.71" y="-99.8" font-family="Times,serif" font-size="14.00">if_valid</text>
</g>
<!-- if_valid&#45;&gt;end -->
<g id="if_valid&#45;end" class="edge">
<title>if_valid&#45;&gt;end</title>
<path fill="none" stroke="black" d="M110.71,-85.6C110.71,-74.26 110.71,-59.23 110.71,-46.32"/>
<polygon fill="black" stroke="black" points="114.21,-46.1 110.71,-36.1 107.21,-46.1 114.21,-46.1"/>
<text text-anchor="middle" x="120.04" y="-56.8" font-family="Times,serif" font-size="14.00">yes</text>
</g>
<!-- message -->
<g id="message" class="node">
<title>message</title>
<polygon fill="none" stroke="black" points="63.64,-36 -0.22,-36 -0.22,0 63.64,0 63.64,-36"/>
<text text-anchor="middle" x="31.71" y="-13.8" font-family="Times,serif" font-size="14.00">message</text>
</g>
<!-- if_valid&#45;&gt;message -->
<g id="if_valid&#45;message" class="edge">
<title>if_valid&#45;&gt;message</title>
<path fill="none" stroke="black" d="M98.37,-89.88C86.77,-77.54 69.1,-58.76 54.87,-43.63"/>
<polygon fill="black" stroke="black" points="57.2,-40.99 47.8,-36.1 52.1,-45.78 57.2,-40.99"/>
<text text-anchor="middle" x="83.71" y="-56.8" font-family="Times,serif" font-size="14.00">no</text>
</g>
<!-- message&#45;&gt;input -->
<g id="message&#45;input" class="edge">
<title>message&#45;&gt;input</title>
<path fill="none" stroke="black" d="M32.8,-36.08C34.53,-63.2 37.91,-116.35 39.98,-148.77"/>
<polygon fill="black" stroke="black" points="36.5,-149.14 40.62,-158.9 43.48,-148.7 36.5,-149.14"/>
</g>
<!-- input&#45;&gt;if_valid -->
<g id="input&#45;if_valid" class="edge">
<title>input&#45;&gt;if_valid</title>
<path fill="none" stroke="black" d="M58.42,-158.81C68.17,-148.77 80.55,-136.04 90.81,-125.48"/>
<polygon fill="black" stroke="black" points="93.38,-127.86 97.84,-118.25 88.36,-122.98 93.38,-127.86"/>
</g>
</g>
</svg>
