<?xml version="1.0" encoding="UTF-8" standalone="no"?>
<!DOCTYPE svg PUBLIC "-//W3C//DTD SVG 1.1//EN"
 "http://www.w3.org/Graphics/SVG/1.1/DTD/svg11.dtd">
<!-- Generated by graphviz version 2.43.0 (0)
 -->
<!-- Title: %3 Pages: 1 -->
<svg width="144pt" height="276pt"
 viewBox="0.00 0.00 143.71 276.00" xmlns="http://www.w3.org/2000/svg" xmlns:xlink="http://www.w3.org/1999/xlink">
<g id="graph0" class="graph" transform="scale(1 1) rotate(0) translate(4 272)">
<title>%3</title>
<polygon fill="white" stroke="transparent" points="-4,4 -4,-272 139.71,-272 139.71,4 -4,4"/>
<!-- start -->
<g id="start" class="node">
<title>start</title>
<polygon fill="none" stroke="black" points="70.71,-268 16.71,-268 16.71,-232 70.71,-232 70.71,-268"/>
<text text-anchor="middle" x="43.71" y="-245.8" font-family="Times,serif" font-size="14.00">start</text>
</g>
<!-- input -->
<g id="input" class="node">
<title>input</title>
<polygon fill="none" stroke="black" points="70.71,-195 16.71,-195 16.71,-159 70.71,-159 70.71,-195"/>
<text text-anchor="middle" x="43.71" y="-172.8" font-family="Times,serif" font-size="14.00">input</text>
</g>
<!-- start&#45;&gt;input -->
<g id="start&#45;input" class="edge">
<title>start&#45;&gt;input</title>
<path fill="none" stroke="black" d="M43.71,-231.81C43.71,-223.79 43.71,-214.05 43.71,-205.07"/>
<polygon fill="black" stroke="black" points="47.21,-205.03 43.71,-195.03 40.21,-205.03 47.21,-205.03"/>
</g>
<!-- end -->
<g id="end" class="node">
<title>end</title>
<polygon fill="none" stroke="black" points="135.71,-36 81.71,-36 81.71,0 135.71,0 135.71,-36"/>
<text text-anchor="middle" x="108.71" y="-13.8" font-family="Times,serif" font-size="14.00">end</text>
</g>
<!-- if_valid -->
<g id="if_valid" class="node">
<title>if_valid</title>
<polygon fill="none" stroke="black" points="119.26,-122 60.17,-122 60.17,-86 119.26,-86 119.26,-122"/>
<text text-anchor="middle" x="89.71" y="-99.8" font-family="Times,serif" font-size="14.00">if_valid</text>
</g>
<!-- if_valid&#45;&gt;end -->
<g id="if_valid&#45;end" class="edge">
<title>if_valid&#45;&gt;end</title>
<path fill="none" stroke="black" d="M93.65,-85.6C96.24,-74.14 99.68,-58.93 102.62,-45.93"/>
<polygon fill="black" stroke="black" points="106.05,-46.62 104.85,-36.1 99.23,-45.08 106.05,-46.62"/>
<text text-anchor="middle" x="110.04" y="-56.8" font-family="Times,serif" font-size="14.00">yes</text>
</g>
<!-- message -->
<g id="message" class="node">
<title>message</title>
<polygon fill="none" stroke="black" points="63.64,-36 -0.22,-36 -0.22,0 63.64,0 63.64,-36"/>
<text text-anchor="middle" x="31.71" y="-13.8" font-family="Times,serif" font-size="14.00">message</text>
</g>
<!-- if_valid&#45;&gt;message -->
<g id="if_valid&#45;message" class="edge">
<title>if_valid&#45;&gt;message</title>
<path fill="none" stroke="black" d="M77.7,-85.6C69.48,-73.69 58.45,-57.71 49.25,-44.4"/>
<polygon fill="black" stroke="black" points="52.08,-42.34 43.52,-36.1 46.32,-46.31 52.08,-42.34"/>
<text text-anchor="middle" x="71.71" y="-56.8" font-family="Times,serif" font-size="14.00">no</text>
</g>
<!-- message&#45;&gt;input -->
<g id="message&#45;input" class="edge">
<title>message&#45;&gt;input</title>
<path fill="none" stroke="black" d="M33.02,-36.08C35.09,-63.2 39.15,-116.35 41.63,-148.77"/>
<polygon fill="black" stroke="black" points="38.15,-149.2 42.41,-158.9 45.13,-148.66 38.15,-149.2"/>
</g>
<!-- input&#45;&gt;if_valid -->
<g id="input&#45;if_valid" class="edge">
<title>input&#45;&gt;if_valid</title>
<path fill="none" stroke="black" d="M54.85,-158.81C60.33,-150.35 67.05,-139.98 73.12,-130.61"/>
<polygon fill="black" stroke="black" points="76.18,-132.32 78.68,-122.03 70.31,-128.52 76.18,-132.32"/>
</g>
</g>
</svg>
