<?xml version="1.0" encoding="UTF-8" standalone="no"?>
<!DOCTYPE svg PUBLIC "-//W3C//DTD SVG 1.1//EN"
 "http://www.w3.org/Graphics/SVG/1.1/DTD/svg11.dtd">
<!-- Generated by graphviz version 2.38.0 (20140413.2041)
 -->
<!-- Title: %3 Pages: 1 -->
<svg width="900px" height="900px" xmlns="http://www.w3.org/2000/svg" xmlns:xlink="http://www.w3.org/1999/xlink">
<g id="graph0" class="graph" transform="scale(1 1) rotate(0) translate(4 273)">
<title>%3</title>
<polygon fill="white" stroke="none" points="-4,4 -4,-273 140,-273 140,4 -4,4"/>
<!-- start -->
<g id="start" class="node"><title>start</title>
<rect fill="red" stroke="black" x1="25" y1="-269" x2="79" y2="-233"/>
<text text-anchor="middle" x="52" y="-247.3" font-family="Times New Roman,serif" font-size="14.00">start</text>
</g>
<!-- input -->
<g id="input" class="node"><title>input</title>
<polygon fill="none" stroke="black" points="79,-196 25,-196 25,-160 79,-160 79,-196"/>
<text text-anchor="middle" x="52" y="-174.3" font-family="Times New Roman,serif" font-size="14.00">input</text>
</g>
<!-- start&#45;&gt;input -->
<g id="start&#45;input" class="edge"><title>start&#45;&gt;input</title>
<path fill="none" stroke="black" d="M52,-232.813C52,-224.789 52,-215.047 52,-206.069"/>
<polygon fill="black" stroke="black" points="55.5001,-206.029 52,-196.029 48.5001,-206.029 55.5001,-206.029"/>
</g>
<!-- end -->
<g id="end" class="node"><title>end</title>
<polygon fill="none" stroke="black" points="136,-36 82,-36 82,-0 136,-0 136,-36"/>
<text text-anchor="middle" x="109" y="-14.3" font-family="Times New Roman,serif" font-size="14.00">end</text>
</g>
<!-- if_valid -->
<g id="if_valid" class="node"><title>if_valid</title>
<polygon fill="none" stroke="black" points="118,-123 60,-123 60,-87 118,-87 118,-123"/>
<text text-anchor="middle" x="89" y="-101.3" font-family="Times New Roman,serif" font-size="14.00">if_valid</text>
</g>
<!-- if_valid&#45;&gt;end -->
<g id="if_valid&#45;end" class="edge"><title>if_valid&#45;&gt;end</title>
<path fill="none" stroke="black" d="M93.0473,-86.799 C95.7853,-75.1626 99.4593,-59.5479 102.591,-46.2368"/>
<polygon fill="black" stroke="black" points="106.075,-46.7113 104.959,-36.1754 99.2613,-45.1079 106.075,-46.7113"/>
<text text-anchor="middle" x="109.5" y="-57.8" font-family="Times New Roman,serif" font-size="14.00">yes</text>
</g>
<!-- message -->
<g id="message" class="node"><title>message</title>
<polygon fill="none" stroke="black" points="64,-36 0,-36 0,-0 64,-0 64,-36"/>
<text text-anchor="middle" x="32" y="-14.3" font-family="Times New Roman,serif" font-size="14.00">message</text>
</g>
<!-- if_valid&#45;&gt;message -->
<g id="if_valid&#45;message" class="edge"><title>if_valid&#45;&gt;message</title>
<path fill="none" stroke="black" d="M77.4652,-86.799 C69.3529,-74.7017 58.3574,-58.3049 49.2117,-44.6665"/>
<polygon fill="black" stroke="black" points="51.9941,-42.5315 43.5176,-36.1754 46.1803,-46.4302 51.9941,-42.5315"/>
<text text-anchor="middle" x="70.5" y="-57.8" font-family="Times New Roman,serif" font-size="14.00">no</text>
</g>
<!-- message&#45;&gt;input -->
<g id="message&#45;input" class="edge"><title>message&#45;&gt;input</title>
<path fill="none" stroke="black" d="M34.1757,-36.1883 C37.6305,-63.4807 44.4012,-116.97 48.5309,-149.594"/>
<polygon fill="black" stroke="black" points="45.0934,-150.309 49.8216,-159.79 52.038,-149.43 45.0934,-150.309"/>
</g>
<!-- input&#45;&gt;if_valid -->
<g id="input&#45;if_valid" class="edge"><title>input&#45;&gt;if_valid</title>
<path fill="none" stroke="black" d="M60.9567,-159.813 C65.3197,-151.441 70.6578,-141.197 75.5015,-131.903"/>
<polygon fill="black" stroke="black" points="78.6082,-133.514 80.1258,-123.029 72.4005,-130.279 78.6082,-133.514"/>
</g>
</g>
</svg>
